<?xml version="1.0" encoding="utf-8"?><svg xmlns="http://www.w3.org/2000/svg" width="15" height="14.999" viewBox="0 0 15 14.999"><path fill="#424143" d="M15 13.618c0 .764-.618 1.38-1.38 1.38H1.38c-.764 0-1.38-.617-1.38-1.38V1.38C0 .62.618 0 1.38 0H13.62C14.38 0 15 .618 15 1.38V13.62z"/><path fill="#383939" d="M15 13.008V1.99c-1.483 1.37-2.412 3.33-2.412 5.51s.93 4.14 2.412 5.508zM0 1.99v11.018c1.483-1.368 2.412-3.33 2.412-5.51S1.484 3.36 0 1.99z"/><path fill="#FFF" d="M10.972 5.59l-1.56-1.562L7.5 5.938l-1.91-1.91-1.56 1.56L5.94 7.5 4.03 9.41l1.56 1.562L7.5 9.06l1.912 1.912 1.56-1.56L9.06 7.5"/></svg>