<?xml version="1.0" encoding="utf-8"?><svg xmlns="http://www.w3.org/2000/svg" viewBox="450 240.001 60 59.999"><path fill="#061714" d="M510 294.473c0 3.053-2.476 5.527-5.526 5.527h-48.947c-3.052 0-5.525-2.475-5.525-5.527v-48.947c0-3.05 2.475-5.525 5.525-5.525h48.947c3.052 0 5.526 2.476 5.526 5.526v48.947z"/><path fill="#010607" d="M510 292.035v-44.072c-5.934 5.48-9.65 13.324-9.65 22.037s3.717 16.555 9.65 22.035zM450 247.963v44.072c5.932-5.48 9.65-13.322 9.65-22.035s-3.718-16.557-9.65-22.037z"/><path fill="#FFF" d="M473.5 262.03c0-1.65 1.03-2.13 2.29-1.066l8.416 7.102c1.263 1.064 1.262 2.805 0 3.87l-8.413 7.1c-1.262 1.064-2.293.585-2.293-1.065v-15.94z"/></svg>