<?xml version="1.0" encoding="utf-8"?><svg xmlns="http://www.w3.org/2000/svg" width="33.991" height="73.395" viewBox="0 0 33.991 73.395"><path fill="#E7E7E7" d="M23.848 26.827c-1.643-.675-2.14-1.955-2.29-2.726V4.56h-9.114v19.337c-.104.727-.527 2.19-2.326 2.93l.018.008C4.196 29.255 0 35.077 0 41.89v31.044c0 .154.008.308.012.46h33.98c.005-.152.01-.306.01-.46V41.887c0-6.818-4.203-12.644-10.154-15.06z"/><path fill="#010101" d="M21.975 9.73V0h-9.947v9.732s.39.15.39.636l.003-.008v1.282h9.165v-1.29l.006.016c0-.485.39-.636.39-.636l-.005-.003z"/><path fill="#FFF" d="M32.338 69.64V42.23c0-2.435-.602-4.722-1.65-6.737H3.313c-1.05 2.018-1.65 4.305-1.65 6.736v27.41h30.674z"/><path fill="#A8AAAD" d="M1.548 43.325v18.782c-.02-.03-.034-.063-.034-.092v3.435h30.988v-3.435c0 .037-.02.072-.047.107V43.325H1.548z"/><path fill="#FFF" d="M31.334 72.14H2.646l-1-1.69h30.688"/><text transform="translate(5.314 57.283)" fill="#010101" font-family="'OpenSans-Semibold'" font-size="5">COCKTAIL</text><path opacity=".7" fill="#FFF" d="M18.047 69.575V12.32h-2.834v12.25c-.016.59-.303 3.53-4.25 6.845 0 0-5.852 4.497-5.852 22.667v15.493h12.937z"/></svg>