<?xml version="1.0" encoding="utf-8"?><svg xmlns="http://www.w3.org/2000/svg" viewBox="23.445 48 656.842 453.5"><path fill="#3C2415" d="M162 308h496V500H162z"/><path fill="#754C29" d="M162 308h42.5V500H162z"/><path fill="#5C3B1B" d="M207.4 308H250V500h-42.6z"/><path fill="#674321" d="M252.7 308h42.5V500h-42.5z"/><path fill="#754C29" d="M298 308h42.6V500H298z"/><path fill="#4C2F0F" d="M343.4 308H386V500h-42.6z"/><path fill="#674321" d="M388.8 308h42.5V500h-42.5z"/><path fill="#593919" d="M434 308h42.6V500H434z"/><path fill="#492C0D" d="M479.5 308H522V500h-42.5z"/><path fill="#593919" d="M524.8 308h42.5V500h-42.5z"/><path fill="#754C29" d="M570.2 308h42.5V500h-42.5z"/><path fill="#593919" d="M615.5 308H658V500h-42.5z"/><path fill="#C5A363" d="M144.3 300H680v12.8H144.2z"/><path fill="#E6E7E8" d="M30.6 77h8.6v8h-8.6zM30.6 284.6h8.6v8h-8.6z"/><path d="M32.8 78h282.7v3.8H32.8z"/><circle cx="314.2" cy="199.7" r="5.7"/><circle cx="244.2" cy="199.7" r="5.7"/><circle cx="174.2" cy="199.7" r="5.7"/><circle cx="314.2" cy="289.7" r="5.7"/><circle cx="174.2" cy="289.7" r="5.7"/><circle cx="34.2" cy="133.6" r="5.7"/><circle cx="34.2" cy="223.6" r="5.7"/><circle cx="104.2" cy="223.6" r="5.7"/><circle cx="34.2" cy="289.8" r="5.7"/><circle cx="104.2" cy="289.8" r="5.7"/><circle cx="174.2" cy="223.6" r="5.7"/><circle cx="103.9" cy="133.6" r="5.7"/><circle cx="173.9" cy="133.6" r="5.7"/><path fill="#754C29" d="M29.3 128H179v3.8H29.3zM29.3 218H179v3.8H29.3zM168.5 194.3h151.3v3.8H168.5zM29.5 284.3h290.3v3.8H29.5z"/><path d="M32.2 78H36v213.8h-3.8z"/><path fill="#D1D3D4" d="M109 266v3.2h-.6c-2.6 0-4.7 2-4.7 4.6 0 2.6 2 4.7 4.7 4.7h.7v5.5h15.4v-18H109zm-.6 10.5c-1.5 0-2.7-1.2-2.7-2.7 0-1.5 1.2-2.7 2.7-2.7l.6.2v5.2h-.6z"/><path fill="#E6E7E8" d="M110.3 267h5v16.2h-5z"/><path fill="#90101C" d="M109 200v3.2h-.6c-2.6 0-4.7 2-4.7 4.6 0 2.6 2 4.7 4.7 4.7h.7v5.5h15.4v-18H109zm-.6 10.5c-1.5 0-2.7-1.2-2.7-2.7 0-1.5 1.2-2.7 2.7-2.7l.6.2v5.2h-.6z"/><path fill="#AA1926" d="M110.3 201h5v16.2h-5z"/><path d="M102.2 78h3.8v213.8h-3.8zM172.2 78h3.8v213.8h-3.8zM242.2 78h3.8v124.2h-3.8zM312.2 78h3.8v213.8h-3.8z"/><circle cx="314.2" cy="80.3" r="5.7"/><circle cx="244.2" cy="80.3" r="5.7"/><circle cx="174.2" cy="80.3" r="5.7"/><circle cx="103.9" cy="80.3" r="5.7"/><circle cx="34.2" cy="80.3" r="5.7"/><g fill="#3C2415"><ellipse transform="rotate(-101.314 181.38 268.092)" cx="181.4" cy="268.1" rx=".8" ry="1.8"/><ellipse transform="rotate(-101.31 185.117 268.112)" cx="185.1" cy="268.1" rx=".8" ry="1.8"/><ellipse transform="rotate(-46.425 188 267.504)" cx="188" cy="267.5" rx=".8" ry="1.8"/><ellipse transform="rotate(-101.31 189.48 267.95)" cx="189.5" cy="268" rx=".8" ry="1.8"/><ellipse transform="rotate(-101.274 193.215 267.96)" cx="193.2" cy="268" rx=".8" ry="1.8"/><ellipse transform="rotate(-46.44 196.048 267.355)" cx="196.1" cy="267.4" rx=".8" ry="1.8"/><ellipse transform="rotate(35.858 204.093 268.926)" cx="204.1" cy="268.9" rx=".8" ry="1.8"/><ellipse transform="rotate(-46.43 203.193 267.32)" cx="203.2" cy="267.3" rx=".8" ry="1.8"/><ellipse transform="rotate(73.477 200.963 267.562)" cx="201" cy="267.6" rx=".8" ry="1.8"/><ellipse transform="rotate(-74.11 198.254 267.828)" cx="198.2" cy="267.8" rx=".8" ry="1.8"/><ellipse transform="rotate(-74.11 191.602 267.562)" cx="191.6" cy="267.6" rx=".8" ry="1.8"/></g><path fill="#3C2415" d="M179.6 269.3s4.5-2.5 9.7-1.3l7-.6h6.7l2.4 2.2v13.7h-25.8v-14z"/><path opacity=".6" fill="#FFF" d="M203 248h-21l-3.7 6.5v29.8h28.4v-29.8"/><path fill="#6D6E71" d="M182 240h21v8h-21z"/><path opacity=".7" fill="#FFF" d="M183 248.6h8v33.8h-8z"/><g fill="#3C2415"><ellipse transform="rotate(-101.31 215.036 256.884)" cx="215" cy="256.9" rx=".8" ry="1.8"/><ellipse transform="rotate(-101.274 218.765 256.902)" cx="218.8" cy="256.9" rx=".8" ry="1.8"/><ellipse transform="rotate(-46.425 221.647 256.31)" cx="221.6" cy="256.3" rx=".8" ry="1.8"/><ellipse transform="rotate(-101.31 223.122 256.734)" cx="223.1" cy="256.7" rx=".8" ry="1.8"/><ellipse transform="rotate(-101.28 226.842 256.75)" cx="226.8" cy="256.8" rx=".8" ry="1.8"/><ellipse transform="rotate(-46.44 229.69 256.14)" cx="229.7" cy="256.2" rx=".8" ry="1.8"/><ellipse transform="rotate(35.855 237.745 257.703)" cx="237.7" cy="257.7" rx=".8" ry="1.8"/><ellipse transform="rotate(-46.467 236.802 256.054)" cx="236.8" cy="256.1" rx=".8" ry="1.8"/><ellipse transform="rotate(73.477 234.633 256.34)" cx="234.6" cy="256.3" rx=".8" ry="1.8"/><ellipse transform="rotate(-74.11 231.88 256.61)" cx="231.9" cy="256.6" rx=".8" ry="1.8"/><ellipse transform="rotate(-74.08 225.23 256.357)" cx="225.2" cy="256.3" rx=".8" ry="1.8"/></g><path fill="#3C2415" d="M213.2 258s4.6-2.4 9.7-1.2l7-.6h6.6l2.4 2.2v25h-25.8V258z"/><path opacity=".6" fill="#FFF" d="M236.6 248h-21l-3.6 6.5v29.8h28.4v-29.8"/><path fill="#6D6E71" d="M215.7 240h21v8h-21z"/><path opacity=".7" fill="#FFF" d="M216.6 248.6h8v33.8h-8z"/><g fill="#3C2415"><ellipse transform="rotate(-101.314 248.66 271.455)" cx="248.7" cy="271.5" rx=".8" ry="1.8"/><ellipse transform="rotate(-101.31 252.4 271.478)" cx="252.4" cy="271.5" rx=".8" ry="1.8"/><ellipse transform="rotate(-46.44 255.26 270.87)" cx="255.3" cy="270.9" rx=".8" ry="1.8"/><ellipse transform="rotate(-101.314 256.746 271.305)" cx="256.8" cy="271.3" rx=".8" ry="1.8"/><ellipse transform="rotate(-101.31 260.486 271.328)" cx="260.5" cy="271.3" rx=".8" ry="1.8"/><ellipse transform="rotate(-46.425 263.364 270.736)" cx="263.3" cy="270.7" rx=".8" ry="1.8"/><ellipse transform="rotate(35.836 271.38 272.353)" cx="271.4" cy="272.3" rx=".8" ry="1.8"/><ellipse transform="rotate(-46.425 270.497 270.67)" cx="270.5" cy="270.7" rx=".8" ry="1.8"/><ellipse transform="rotate(73.508 268.233 270.926)" cx="268.2" cy="270.9" rx=".8" ry="1.8"/><ellipse transform="rotate(-74.11 265.537 271.192)" cx="265.5" cy="271.2" rx=".8" ry="1.8"/><ellipse transform="rotate(-74.11 258.888 270.926)" cx="258.9" cy="270.9" rx=".8" ry="1.8"/></g><path fill="#3C2415" d="M247 272.7s4.4-2.6 9.6-1.4l7-.5h6.7l2.4 2v10.5H247v-10.6z"/><path opacity=".6" fill="#FFF" d="M270.3 248h-21l-3.7 6.5v29.8H274v-29.8"/><path fill="#6D6E71" d="M249.4 240h21v8h-21z"/><path opacity=".7" fill="#FFF" d="M250.3 248.6h8v33.8h-8z"/><g fill="#3C2415"><ellipse transform="rotate(-101.31 282.3 268.113)" cx="282.3" cy="268.1" rx=".8" ry="1.8"/><ellipse transform="rotate(-101.274 286.056 268.108)" cx="286" cy="268.1" rx=".8" ry="1.8"/><ellipse transform="rotate(-46.44 288.902 267.505)" cx="288.9" cy="267.5" rx=".8" ry="1.8"/><ellipse transform="rotate(-101.314 290.386 267.94)" cx="290.4" cy="267.9" rx=".8" ry="1.8"/><ellipse transform="rotate(-101.31 294.128 267.965)" cx="294.1" cy="268" rx=".8" ry="1.8"/><ellipse transform="rotate(-46.402 297.003 267.375)" cx="297" cy="267.4" rx=".8" ry="1.8"/><ellipse transform="rotate(35.855 305.035 268.953)" cx="305" cy="269" rx=".8" ry="1.8"/><ellipse transform="rotate(-46.43 304.13 267.32)" cx="304.1" cy="267.3" rx=".8" ry="1.8"/><ellipse transform="rotate(73.508 301.874 267.563)" cx="301.9" cy="267.6" rx=".8" ry="1.8"/><ellipse transform="rotate(-74.08 299.18 267.842)" cx="299.2" cy="267.8" rx=".8" ry="1.8"/><ellipse transform="rotate(-74.11 292.517 267.57)" cx="292.5" cy="267.6" rx=".8" ry="1.8"/></g><path fill="#3C2415" d="M280.5 269.3s4.5-2.5 9.7-1.3l7-.6h6.7l2.3 2.2v13.7h-25.8v-14z"/><path opacity=".6" fill="#FFF" d="M304 248h-21l-3.7 6.5v29.8h28.4v-29.8"/><path fill="#6D6E71" d="M283 240h21v8h-21z"/><path opacity=".7" fill="#FFF" d="M284 248.6h8v33.8h-8z"/><path fill="#C49A6C" d="M126.4 103.3H149v22h-22.6z"/><path fill="#B08B61" d="M130.2 107H145v14.6h-14.8z"/><path fill="#C49A6C" d="M124.8 100.8h25.8v2.5h-25.8zM124.8 125.3h25.8v2.5h-25.8z"/><path fill="#414042" d="M128 90.7c0 5.4 4.4 9.6 9.6 9.6 5.3 0 9.6-4.2 9.6-9.5h-19z"/><path fill="#414042" d="M144.7 100.8c-2.2-1-4.5-1.6-7-1.6-2.6 0-5 .6-7 1.6h14z"/><ellipse fill="#414042" cx="137.6" cy="89.3" rx=".9" ry="1.1"/><path fill="#414042" d="M137.3 90h.6v1.7h-.7z"/><path fill="none" stroke="#414042" stroke-miterlimit="10" d="M138 92l1.5-2.2s8-.5 10.8-2.2h2"/><circle fill="#414042" cx="151.3" cy="85.7" r="1"/><path fill="#414042" d="M151.2 86.3h.3v1h-.3z"/><path fill="#BE1E2D" d="M177.3 163.3h18v31h-18z"/><path fill="#90101C" d="M177.3 171h18v15.5h-18z"/><path fill="none" stroke="#FFF" stroke-width=".3" stroke-miterlimit="10" d="M182.3 173.5h8.4M182.3 183.5h8.4"/><path fill="#BE1E2D" d="M197.3 163.3h18v31h-18z"/><path fill="#90101C" d="M197.3 171h18v15.5h-18z"/><path fill="none" stroke="#FFF" stroke-width=".3" stroke-miterlimit="10" d="M202.3 173.5h8.4M202.3 183.5h8.4"/><path fill="#BE1E2D" d="M187.3 132.3h18v31h-18z"/><path fill="#90101C" d="M187.3 140h18v15.5h-18z"/><path fill="none" stroke="#FFF" stroke-width=".3" stroke-miterlimit="10" d="M192.3 142.5h8.4M192.3 152.5h8.4"/><path fill="#BE1E2D" d="M207.3 132.3h18v31h-18z"/><path fill="#90101C" d="M207.3 140h18v15.5h-18z"/><path fill="none" stroke="#FFF" stroke-width=".3" stroke-miterlimit="10" d="M212.3 142.5h8.4M212.3 152.5h8.4"/><path fill="#BE1E2D" d="M197.3 101.3h18v31h-18z"/><path fill="#90101C" d="M197.3 109h18v15.5h-18z"/><path fill="none" stroke="#FFF" stroke-width=".3" stroke-miterlimit="10" d="M202.3 111.5h8.4M202.3 121.5h8.4"/><path fill="#BE1E2D" d="M217.3 163.3h18v31h-18z"/><path fill="#90101C" d="M217.3 171h18v15.5h-18z"/><path fill="none" stroke="#FFF" stroke-width=".3" stroke-miterlimit="10" d="M222.3 173.5h8.4M222.3 183.5h8.4"/><path fill="#002A05" d="M250.3 163.3h18v31h-18z"/><path fill="#FCB43D" d="M250.3 171h18v15.5h-18z"/><path fill="none" stroke="#414042" stroke-width=".3" stroke-miterlimit="10" d="M255.3 173.5h8.4M255.3 183.5h8.4"/><path fill="#002A05" d="M270.3 163.3h18v31h-18z"/><path fill="#FCB43D" d="M270.3 171h18v15.5h-18z"/><path fill="none" stroke="#414042" stroke-width=".3" stroke-miterlimit="10" d="M275.3 173.5h8.4M275.3 183.5h8.4"/><path fill="#002A05" d="M260.3 132.3h18v31h-18z"/><path fill="#FCB43D" d="M260.3 140h18v15.5h-18z"/><path fill="none" stroke="#414042" stroke-width=".3" stroke-miterlimit="10" d="M265.3 142.5h8.4M265.3 152.5h8.4"/><g><path fill="#002A05" d="M280.3 132.3h18v31h-18z"/><path fill="#FCB43D" d="M280.3 140h18v15.5h-18z"/><path fill="none" stroke="#414042" stroke-width=".3" stroke-miterlimit="10" d="M285.3 142.5h8.4M285.3 152.5h8.4"/></g><g><path fill="#002A05" d="M270.3 101.3h18v31h-18z"/><path fill="#FCB43D" d="M270.3 109h18v15.5h-18z"/><path fill="none" stroke="#414042" stroke-width=".3" stroke-miterlimit="10" d="M275.3 111.5h8.4M275.3 121.5h8.4"/></g><g><path fill="#002A05" d="M290.3 163.3h18v31h-18z"/><path fill="#FCB43D" d="M290.3 171h18v15.5h-18z"/><path fill="none" stroke="#414042" stroke-width=".3" stroke-miterlimit="10" d="M295.3 173.5h8.4M295.3 183.5h8.4"/></g><g fill="#8DC63F"><path d="M52.3 111.5v-17l.8 17M53.5 111.5l.8-20.6v20.5M55 111.5l.6-17.2.3 17.2M56.4 111.5l.6-17.2.3 17.2M58 111.5l.3-16.8.6 16.8M59.3 111.5v-17l.8 17M60.5 111.5l.8-20.6v20.5M62 111.5l.6-17.2.3 17.2M63.4 111.5l.6-17.2.3 17.2M65 111.5l.3-16.8.6 16.8"/><path d="M61.3 111.5v-17l1 17M62.6 111.5l.7-20.6v20.5M59.8 111.5l.7-20.6v20.5M64 111.5l.6-17.2.3 17.2M65.5 111.5l.6-17.2.4 17.2M67 111.5l.4-16.8.6 16.8M52.7 111.5v-17l1 17M54 111.5l.7-20.6v20.5M55.4 111.5l.6-17.2.3 17.2M57 111.5l.4-17.2.4 17.2M58.5 111.5l.3-16.8.6 16.8"/><path d="M66.8 111.5v-17l.8 17M68 111.5l.8-20.6v20.5M69.5 111.5l.6-17.2.4 17.2M71 111.5l.5-17.2.3 17.2M72.6 111.5l.2-16.8.6 16.8M73.8 111.5v-17l.8 17M75 111.5l.8-20.6v20.5M76.5 111.5l.6-17.2.4 17.2M78 111.5l.5-17.2.3 17.2M79.6 111.5l.2-16.8.6 16.8"/><path d="M75.8 111.5v-17l1 17M77 111.5L78 91v20.5M74.3 111.5L75 91v20.5M78.6 111.5l.5-17.2.4 17.2M80 111.5l.6-17.2.3 17.2M81.6 111.5l.3-16.8.5 16.8M67.2 111.5v-17l1 17M68.4 111.5l.8-20.6v20.5M70 111.5l.5-17.2.3 17.2M71.4 111.5l.5-17.2.3 17.2M73 111.5l.3-16.8.6 16.8"/><path d="M73.4 111.5l.2-16.8.7 16.8"/><path d="M74.3 111.5L75 91v20.5M75.8 111.5l.5-17.2.3 17.2M77.2 111.5l.5-17.2.4 17.2M78.8 111.5l.3-16.8.7 16.8M80 111.5v-17l1 17M81.3 111.5L82 91v20.5M82.8 111.5l.5-17.2.3 17.2M84.2 111.5l.5-17.2.4 17.2M85.8 111.5l.3-16.8.7 16.8"/><path d="M82 111.5l.2-17 .7 17M83.3 111.5L84 91l.2 20.5M80.5 111.5l.8-20.6v20.5M84.8 111.5l.6-17.2.3 17.2M86.3 111.5l.5-17.2.3 17.2M88 111.5V94.7l.8 16.8M73.4 111.5l.2-17 .7 17M74.7 111.5l.7-20.6.2 20.5M76.2 111.5l.5-17.2.4 17.2M77.6 111.5l.6-17.2.3 17.2M79.3 111.5l.2-16.8.6 16.8"/></g><path fill="#8B5E3C" d="M50.2 111h41.2v17H50.2z"/><path fill="#E6E7E8" d="M340.6 77h8.6v8h-8.6zM340.6 96h8.6v8h-8.6zM340.6 114.8h8.6v8h-8.6zM340.6 133.6h8.6v8h-8.6zM340.6 152.5h8.6v8h-8.6zM340.6 171.4h8.6v8h-8.6zM340.6 190.2h8.6v8h-8.6zM340.6 209h8.6v8h-8.6zM340.6 228h8.6v8h-8.6zM340.6 246.8h8.6v8h-8.6zM340.6 265.7h8.6v8h-8.6zM340.6 284.6h8.6v8h-8.6z"/><path d="M343.4 78h331.8v3.8H343.4z"/><circle cx="674.2" cy="289.7" r="5.7"/><circle cx="344.2" cy="289.8" r="5.7"/><circle cx="344.2" cy="184.9" r="5.7"/><path fill="#754C29" d="M339.3 179.3H680v3.8H339.3zM339.6 284.3h340.7v3.8H339.6z"/><path d="M342.2 78h3.8v213.8h-3.8zM672.2 78h3.8v213.8h-3.8z"/><circle cx="674.2" cy="80.3" r="5.7"/><circle cx="674.2" cy="184.9" r="5.7"/><g><circle cx="509.3" cy="289.7" r="5.7"/><circle cx="509.3" cy="184.9" r="5.7"/><path d="M507.4 78h3.8v213.8h-3.8z"/><circle cx="509.3" cy="80.3" r="5.7"/></g><circle cx="344.2" cy="80.3" r="5.7"/><g><path fill="#90101C" d="M153 200v3.2h-.6c-2.6 0-4.7 2-4.7 4.6 0 2.6 2 4.7 4.7 4.7h.7v5.5h15.4v-18H153zm-.6 10.5c-1.5 0-2.7-1.2-2.7-2.7 0-1.5 1.2-2.7 2.7-2.7l.6.2v5.2h-.6z"/><path fill="#AA1926" d="M154.3 201h5v16.2h-5z"/></g><g><path fill="#90101C" d="M131 200v3.2h-.6c-2.6 0-4.7 2-4.7 4.6 0 2.6 2 4.7 4.7 4.7h.7v5.5h15.4v-18H131zm-.6 10.5c-1.5 0-2.7-1.2-2.7-2.7 0-1.5 1.2-2.7 2.7-2.7l.6.2v5.2h-.6z"/><path fill="#AA1926" d="M132.3 201h5v16.2h-5z"/></g><g><path fill="#D1D3D4" d="M153 266v3.2h-.6c-2.6 0-4.7 2-4.7 4.6 0 2.6 2 4.7 4.7 4.7h.7v5.5h15.4v-18H153zm-.6 10.5c-1.5 0-2.7-1.2-2.7-2.7 0-1.5 1.2-2.7 2.7-2.7l.6.2v5.2h-.6z"/><path fill="#E6E7E8" d="M154.3 267h5v16.2h-5z"/></g><g><path fill="#D1D3D4" d="M131 266v3.2h-.6c-2.6 0-4.7 2-4.7 4.6 0 2.6 2 4.7 4.7 4.7h.7v5.5h15.4v-18H131zm-.6 10.5c-1.5 0-2.7-1.2-2.7-2.7 0-1.5 1.2-2.7 2.7-2.7l.6.2v5.2h-.6z"/><path fill="#E6E7E8" d="M132.3 267h5v16.2h-5z"/></g><g><path fill="#E6E7E8" d="M384.4 132.7c-1.7-.7-2.2-2-2.3-2.7v-19.6h-9v19.4c0 .7-.6 2.2-2.4 3-6 2.3-10 8.2-10 15v31.5h34v-31.5c0-6.8-4.3-12.7-10.2-15z"/><path d="M382.5 115.6V106h-10v9.6s.4.2.4.7v1.2h9v-1.3c0-.4.5-.6.5-.6z"/><path fill="#F7941E" d="M393 175.5V148c0-2.3-.7-4.6-1.8-6.6h-27.4c-1 2-1.6 4.3-1.6 6.7v27.5H393z"/><path fill="#A7A9AC" d="M362 149.2v22.1h31V149h-31z"/><path fill="#FFF" d="M392 178H363l-1-1.7H393"/><text transform="translate(367.834 163.166)" font-family="'OpenSans-Semibold'" font-size="8">JUICE</text><path opacity=".7" fill="#FFF" d="M378.6 175.5v-57.3h-3v12.3c0 .5-.2 3.5-4 6.8 0 0-6 4.5-6 22.7v15.5h13z"/></g><g><path fill="#E6E7E8" d="M434.4 132.7c-1.7-.7-2.2-2-2.3-2.7v-19.6h-9v19.4c0 .7-.6 2.2-2.4 3-6 2.3-10 8.2-10 15v31.5h34v-31.5c0-6.8-4.3-12.7-10.2-15z"/><path d="M432.5 115.6V106h-10v9.6s.4.2.4.7v1.2h9v-1.3c0-.4.5-.6.5-.6z"/><path fill="#F7941E" d="M443 175.5V148c0-2.3-.7-4.6-1.8-6.6h-27.4c-1 2-1.6 4.3-1.6 6.7v27.5H443z"/><path fill="#A7A9AC" d="M412 149.2v22.1h31V149h-31z"/><path fill="#FFF" d="M442 178H413l-1-1.7H443"/><text transform="translate(417.834 163.166)" font-family="'OpenSans-Semibold'" font-size="8">JUICE</text><path opacity=".7" fill="#FFF" d="M428.6 175.5v-57.3h-3v12.3c0 .5-.2 3.5-4 6.8 0 0-6 4.5-6 22.7v15.5h13z"/></g><g><path fill="#E6E7E8" d="M484.4 132.7c-1.7-.7-2.2-2-2.3-2.7v-19.6h-9v19.4c0 .7-.6 2.2-2.4 3-6 2.3-10 8.2-10 15v31.5h34v-31.5c0-6.8-4.3-12.7-10.2-15z"/><path d="M482.5 115.6V106h-10v9.6s.4.2.4.7v1.2h9v-1.3c0-.4.5-.6.5-.6z"/><path fill="#F7941E" d="M493 175.5V148c0-2.3-.7-4.6-1.8-6.6h-27.4c-1 2-1.6 4.3-1.6 6.7v27.5H493z"/><path fill="#A7A9AC" d="M462 149.2v22.1h31V149h-31z"/><path fill="#FFF" d="M492 178H463l-1-1.7H493"/><text transform="translate(467.834 163.166)" font-family="'OpenSans-Semibold'" font-size="8">JUICE</text><path opacity=".7" fill="#FFF" d="M478.6 175.5v-57.3h-3v12.3c0 .5-.2 3.5-4 6.8 0 0-6 4.5-6 22.7v15.5h13z"/></g><g><path fill="#E6E7E8" d="M549.4 132.7c-1.7-.7-2.2-2-2.3-2.7v-19.6h-9v19.4c0 .7-.6 2.2-2.4 3-6 2.3-10 8.2-10 15v31.5h34v-31.5c0-6.8-4.3-12.7-10.2-15z"/><path d="M547.5 115.6V106h-10v9.6s.4.2.4.7v1.2h9v-1.3c0-.4.5-.6.5-.6z"/><path fill="#410000" d="M558 175.5V148c0-2.3-.7-4.6-1.8-6.6h-27.4c-1 2-1.6 4.3-1.6 6.7v27.5H558z"/><path fill="#A7A9AC" d="M527 149.2v22.1h31V149h-31z"/><path fill="#FFF" d="M557 178H528l-1-1.7H558"/><text transform="translate(535.834 163.166)" font-family="'OpenSans-Semibold'" font-size="8">TEA</text><path opacity=".7" fill="#FFF" d="M543.6 175.5v-57.3h-3v12.3c0 .5-.2 3.5-4 6.8 0 0-6 4.5-6 22.7v15.5h13z"/></g><g><path fill="#E6E7E8" d="M599.4 132.7c-1.7-.7-2.2-2-2.3-2.7v-19.6h-9v19.4c0 .7-.6 2.2-2.4 3-6 2.3-10 8.2-10 15v31.5h34v-31.5c0-6.8-4.3-12.7-10.2-15z"/><path d="M597.5 115.6V106h-10v9.6s.4.2.4.7v1.2h9v-1.3c0-.4.5-.6.5-.6z"/><path fill="#410000" d="M608 175.5V148c0-2.3-.7-4.6-1.8-6.6h-27.4c-1 2-1.6 4.3-1.6 6.7v27.5H608z"/><path fill="#A7A9AC" d="M577 149.2v22.1h31V149h-31z"/><path fill="#FFF" d="M607 178H578l-1-1.7H608"/><text transform="translate(585.834 163.166)" font-family="'OpenSans-Semibold'" font-size="8">TEA</text><path opacity=".7" fill="#FFF" d="M593.6 175.5v-57.3h-3v12.3c0 .5-.2 3.5-4 6.8 0 0-6 4.5-6 22.7v15.5h13z"/></g><g><path fill="#E6E7E8" d="M649.4 132.7c-1.7-.7-2.2-2-2.3-2.7v-19.6h-9v19.4c0 .7-.6 2.2-2.4 3-6 2.3-10 8.2-10 15v31.5h34v-31.5c0-6.8-4.3-12.7-10.2-15z"/><path d="M647.5 115.6V106h-10v9.6s.4.2.4.7v1.2h9v-1.3c0-.4.5-.6.5-.6z"/><path fill="#410000" d="M658 175.5V148c0-2.3-.7-4.6-1.8-6.6h-27.4c-1 2-1.6 4.3-1.6 6.7v27.5H658z"/><path fill="#A7A9AC" d="M627 149.2v22.1h31V149h-31z"/><path fill="#FFF" d="M657 178H628l-1-1.7H658"/><text transform="translate(635.834 163.166)" font-family="'OpenSans-Semibold'" font-size="8">TEA</text><path opacity=".7" fill="#FFF" d="M643.6 175.5v-57.3h-3v12.3c0 .5-.2 3.5-4 6.8 0 0-6 4.5-6 22.7v15.5h13z"/></g><g><path fill="#E6E7E8" d="M384.4 237.7c-1.7-.7-2.2-2-2.3-2.7v-19.6h-9v19.4c0 .7-.6 2.2-2.4 3-6 2.3-10 8.2-10 15v31.5h34v-31.5c0-6.8-4.3-12.7-10.2-15z"/><path d="M382.5 220.6V211h-10v9.6s.4.2.4.7v1.2h9v-1.3c0-.4.5-.6.5-.6z"/><path fill="#414042" d="M393 280.5V253c0-2.3-.7-4.6-1.8-6.6h-27.4c-1 2-1.6 4.3-1.6 6.7v27.5H393z"/><path fill="#A7A9AC" d="M362 254.2v22.1h31V254h-31z"/><path fill="#FFF" d="M392 283H363l-1-1.7H393"/><text transform="translate(366.834 268.166)" font-family="'OpenSans-Semibold'" font-size="6">COFFEE</text><path opacity=".7" fill="#FFF" d="M378.6 280.5v-57.3h-3v12.3c0 .5-.2 3.5-4 6.8 0 0-6 4.5-6 22.7v15.5h13z"/></g><g><path fill="#E6E7E8" d="M434.4 237.7c-1.7-.7-2.2-2-2.3-2.7v-19.6h-9v19.4c0 .7-.6 2.2-2.4 3-6 2.3-10 8.2-10 15v31.5h34v-31.5c0-6.8-4.3-12.7-10.2-15z"/><path d="M432.5 220.6V211h-10v9.6s.4.2.4.7v1.2h9v-1.3c0-.4.5-.6.5-.6z"/><path fill="#414042" d="M443 280.5V253c0-2.3-.7-4.6-1.8-6.6h-27.4c-1 2-1.6 4.3-1.6 6.7v27.5H443z"/><path fill="#A7A9AC" d="M412 254.2v22.1h31V254h-31z"/><path fill="#FFF" d="M442 283H413l-1-1.7H443"/><text transform="translate(416.834 268.166)" font-family="'OpenSans-Semibold'" font-size="6">COFFEE</text><path opacity=".7" fill="#FFF" d="M428.6 280.5v-57.3h-3v12.3c0 .5-.2 3.5-4 6.8 0 0-6 4.5-6 22.7v15.5h13z"/></g><g><path fill="#E6E7E8" d="M484.4 237.7c-1.7-.7-2.2-2-2.3-2.7v-19.6h-9v19.4c0 .7-.6 2.2-2.4 3-6 2.3-10 8.2-10 15v31.5h34v-31.5c0-6.8-4.3-12.7-10.2-15z"/><path d="M482.5 220.6V211h-10v9.6s.4.2.4.7v1.2h9v-1.3c0-.4.5-.6.5-.6z"/><path fill="#414042" d="M493 280.5V253c0-2.3-.7-4.6-1.8-6.6h-27.4c-1 2-1.6 4.3-1.6 6.7v27.5H493z"/><path fill="#A7A9AC" d="M462 254.2v22.1h31V254h-31z"/><path fill="#FFF" d="M492 283H463l-1-1.7H493"/><text transform="translate(466.834 268.166)" font-family="'OpenSans-Semibold'" font-size="6">COFFEE</text><path opacity=".7" fill="#FFF" d="M478.6 280.5v-57.3h-3v12.3c0 .5-.2 3.5-4 6.8 0 0-6 4.5-6 22.7v15.5h13z"/></g><g><path fill="#E6E7E8" d="M549.4 237.7c-1.7-.7-2.2-2-2.3-2.7v-19.6h-9v19.4c0 .7-.6 2.2-2.4 3-6 2.3-10 8.2-10 15v31.5h34v-31.5c0-6.8-4.3-12.7-10.2-15z"/><path d="M547.5 220.6V211h-10v9.6s.4.2.4.7v1.2h9v-1.3c0-.4.5-.6.5-.6z"/><path fill="#FFF" d="M558 280.5V253c0-2.3-.7-4.6-1.8-6.6h-27.4c-1 2-1.6 4.3-1.6 6.7v27.5H558z"/><path fill="#A7A9AC" d="M527 254.2v22.1h31V254h-31z"/><path fill="#FFF" d="M557 283H528l-1-1.7H558"/><text transform="translate(530.834 268.166)" font-family="'OpenSans-Semibold'" font-size="5">MOCKTAIL</text><path opacity=".7" fill="#FFF" d="M543.6 280.5v-57.3h-3v12.3c0 .5-.2 3.5-4 6.8 0 0-6 4.5-6 22.7v15.5h13z"/></g><g><path fill="#E6E7E8" d="M599.4 237.7c-1.7-.7-2.2-2-2.3-2.7v-19.6h-9v19.4c0 .7-.6 2.2-2.4 3-6 2.3-10 8.2-10 15v31.5h34v-31.5c0-6.8-4.3-12.7-10.2-15z"/><path d="M597.5 220.6V211h-10v9.6s.4.2.4.7v1.2h9v-1.3c0-.4.5-.6.5-.6z"/><path fill="#FFF" d="M608 280.5V253c0-2.3-.7-4.6-1.8-6.6h-27.4c-1 2-1.6 4.3-1.6 6.7v27.5H608z"/><path fill="#A7A9AC" d="M577 254.2v22.1h31V254h-31z"/><path fill="#FFF" d="M607 283H578l-1-1.7H608"/><text transform="translate(580.834 268.166)" font-family="'OpenSans-Semibold'" font-size="5">MOCKTAIL</text><path opacity=".7" fill="#FFF" d="M593.6 280.5v-57.3h-3v12.3c0 .5-.2 3.5-4 6.8 0 0-6 4.5-6 22.7v15.5h13z"/></g><g><path fill="#E6E7E8" d="M649.4 237.7c-1.7-.7-2.2-2-2.3-2.7v-19.6h-9v19.4c0 .7-.6 2.2-2.4 3-6 2.3-10 8.2-10 15v31.5h34v-31.5c0-6.8-4.3-12.7-10.2-15z"/><path d="M647.5 220.6V211h-10v9.6s.4.2.4.7v1.2h9v-1.3c0-.4.5-.6.5-.6z"/><path fill="#FFF" d="M658 280.5V253c0-2.3-.7-4.6-1.8-6.6h-27.4c-1 2-1.6 4.3-1.6 6.7v27.5H658z"/><path fill="#A7A9AC" d="M627 254.2v22.1h31V254h-31z"/><path fill="#FFF" d="M657 283H628l-1-1.7H658"/><text transform="translate(630.834 268.166)" font-family="'OpenSans-Semibold'" font-size="5">MOCKTAIL</text><path opacity=".7" fill="#FFF" d="M643.6 280.5v-57.3h-3v12.3c0 .5-.2 3.5-4 6.8 0 0-6 4.5-6 22.7v15.5h13z"/></g><g><path fill="#A4825A" d="M316 449.5h69.5v9H316z"/><path fill="#603913" d="M318.7 355.7h66V368h-66z"/><path fill="#C49A6C" d="M395 501.5L383 361l-9.6 1 12.2 139.5"/><path fill="#9D7D56" d="M379 362l12.3 139.5h3.8l-12-140"/><path fill="#C49A6C" d="M317.8 501.5L330 362l-9.5-1-12.2 140.5"/><path fill="#9D7D56" d="M315.3 501.5h2.5L330 362l-2.4-.3"/><path fill="#AA875E" d="M384.7 368h-66l1 2.5h64"/><path fill="#B89165" d="M318.7 355.7h15.5V368h-15.5zM335.5 355.7H351V368h-15.5zM352.3 355.7h15.5V368h-15.5zM369.2 355.7h15.5V368h-15.5z"/></g><g><path fill="#A4825A" d="M196 449.5h69.5v9H196z"/><path fill="#603913" d="M198.7 355.7h66V368h-66z"/><path fill="#C49A6C" d="M275 501.5L263 361l-9.6 1 12.2 139.5"/><path fill="#9D7D56" d="M259 362l12.3 139.5h3.8l-12-140"/><path fill="#C49A6C" d="M197.8 501.5L210 362l-9.5-1-12.2 140.5"/><path fill="#9D7D56" d="M195.3 501.5h2.5L210 362l-2.4-.3"/><path fill="#AA875E" d="M264.7 368h-66l1 2.5h64"/><path fill="#B89165" d="M198.7 355.7h15.5V368h-15.5zM215.5 355.7H231V368h-15.5zM232.3 355.7h15.5V368h-15.5zM249.2 355.7h15.5V368h-15.5z"/></g><g><path fill="#A4825A" d="M436 449.5h69.5v9H436z"/><path fill="#603913" d="M438.7 355.7h66V368h-66z"/><path fill="#C49A6C" d="M515 501.5L503 361l-9.6 1 12.2 139.5"/><path fill="#9D7D56" d="M499 362l12.3 139.5h3.8l-12-140"/><path fill="#C49A6C" d="M437.8 501.5L450 362l-9.5-1-12.2 140.5"/><path fill="#9D7D56" d="M435.3 501.5h2.5L450 362l-2.4-.3"/><path fill="#AA875E" d="M504.7 368h-66l1 2.5h64"/><path fill="#B89165" d="M438.7 355.7h15.5V368h-15.5zM455.5 355.7H471V368h-15.5zM472.3 355.7h15.5V368h-15.5zM489.2 355.7h15.5V368h-15.5z"/></g><g><path fill="#A4825A" d="M546 449.5h69.5v9H546z"/><path fill="#603913" d="M548.7 355.7h66V368h-66z"/><path fill="#C49A6C" d="M625 501.5L613 361l-9.6 1 12.2 139.5"/><path fill="#9D7D56" d="M609 362l12.3 139.5h4l-12.4-140"/><path fill="#C49A6C" d="M547.8 501.5L560 362l-9.5-1-12.2 140.5"/><path fill="#9D7D56" d="M545.3 501.5h2.5L560 362l-2.4-.3"/><path fill="#AA875E" d="M614.7 368h-66l1 2.5h64"/><path fill="#B89165" d="M548.7 355.7h15.5V368h-15.5zM565.5 355.7H581V368h-15.5zM582.3 355.7h15.5V368h-15.5zM599.2 355.7h15.5V368h-15.5z"/></g><g><path fill="none" stroke="#000" stroke-width="2" stroke-miterlimit="10" d="M275.2 69.7V48"/><path d="M283.2 74.4l-.8-13.7H268l-.8 13.7c-17 3.7-29.7 18.8-29.8 36.8H313c0-18-12.8-33-29.8-36.8z"/><linearGradient id="a" gradientUnits="userSpaceOnUse" x1="283.6" y1="514.3" x2="283.6" y2="465.3" gradientTransform="matrix(1 0 0 -1 -8.36 619.335)"><stop offset="0" stop-color="#FFDE17"/><stop offset="1" stop-color="#FFDE17" stop-opacity="0"/></linearGradient><path fill="url(#a)" d="M323 154h-95.6l10-43H313"/><path opacity=".2" fill="#FFF" d="M275 77V62.4h-5.5l-.8 14.2c-15.7 3.4-27.8 16.7-29.4 33h23.3c1.2-12 5.6-23 12.4-32.4z"/></g><g><path fill="none" stroke="#000" stroke-width="2" stroke-miterlimit="10" d="M415.2 69.7V48"/><path d="M423.2 74.4l-.8-13.7H408l-.8 13.7c-17 3.7-29.7 18.8-29.8 36.8H453c0-18-12.8-33-29.8-36.8z"/><linearGradient id="b" gradientUnits="userSpaceOnUse" x1="423.6" y1="514.3" x2="423.6" y2="465.3" gradientTransform="matrix(1 0 0 -1 -8.36 619.335)"><stop offset="0" stop-color="#FFDE17"/><stop offset="1" stop-color="#FFDE17" stop-opacity="0"/></linearGradient><path fill="url(#b)" d="M463 154h-95.6l10-43H453"/><path opacity=".2" fill="#FFF" d="M415 77V62.4h-5.5l-.8 14.2c-15.7 3.4-27.8 16.7-29.4 33h23.3c1.2-12 5.6-23 12.4-32.4z"/></g><g><path fill="none" stroke="#000" stroke-width="2" stroke-miterlimit="10" d="M555.2 69.7V48"/><path d="M563.2 74.4l-.8-13.7H548l-.8 13.7c-17 3.7-29.7 18.8-29.8 36.8H593c0-18-12.8-33-29.8-36.8z"/><linearGradient id="c" gradientUnits="userSpaceOnUse" x1="563.6" y1="514.3" x2="563.6" y2="465.3" gradientTransform="matrix(1 0 0 -1 -8.36 619.335)"><stop offset="0" stop-color="#FFDE17"/><stop offset="1" stop-color="#FFDE17" stop-opacity="0"/></linearGradient><path fill="url(#c)" d="M603 154h-95.6l10-43H593"/><path opacity=".2" fill="#FFF" d="M555 77V62.4h-5.5l-.8 14.2c-15.7 3.4-27.8 16.7-29.4 33h23.3c1.2-12 5.6-23 12.4-32.4z"/></g></svg>