<?xml version="1.0" encoding="utf-8"?><svg xmlns:xlink="http://www.w3.org/1999/xlink" id="bartender" image-rendering="auto" baseProfile="basic" version="1.1" x="0px" y="0px" width="210" height="350" xmlns="http://www.w3.org/2000/svg"><g id="idle" overflow="visible"><path fill="#F3F4F4" d="M136.15,31.1Q138.25,27.7 138.25,23.65 138.25,17.85 134.15,13.75 130.05,9.65 124.25,9.65 121.85,9.65 119.55,10.45 116.7,7 112.6,5 112.55,4.95 112.5,4.95 112.35,4.9 112.25,4.85 112.1,4.75 111.9,4.7 111.8,4.6 111.7,4.6 111.45,4.5 111.25,4.4 111.1,4.3 110.95,4.25 110.8,4.2 110.7,4.2 110.6,4.15 110.5,4.1 107.25,2.95 103.75,2.9L103.75,65.95 104.05,65.95 124.95,65.95 130.6,65.95 130.6,63.25 130.6,36.15Q134.05,34.4 136.15,31.1"/><path fill="#FFF" d="M103.75,2.9Q103.65,2.9 103.5,2.9 98.75,2.9 94.5,4.95 90.4,6.95 87.5,10.45 85.1,9.65 82.75,9.65 76.95,9.65 72.85,13.75 68.75,17.85 68.75,23.65 68.75,28 71.2,31.6 73.6,35.05 77.5,36.65L77.5,65.95 77.65,65.95 87.85,65.95 103.75,65.95 103.75,2.9"/><path fill="#FFDAA2" d="M104.05,65.95L103.75,65.95 87.85,65.95Q87.3,66.35 86.75,66.95 83.15,70.8 82.7,80.45 82.7,80 82.65,79.6 82.4,75.65 81.35,74.65 80.25,74.95 79.4,75.8 78.05,77.2 78.05,79.1L78.05,82.9Q78.05,84.8 79.4,86.15 80.75,87.5 82.65,87.5 82.75,87.5 82.85,87.5 83.85,90.7 85.85,93.55 89.75,99.2 96.15,101.7L96.15,107.95 96.15,110.7Q96.15,114.1 98.55,116.5 100.8,118.8 104.05,118.9L104.05,87.45 104.05,76.6 104.05,65.95"/><path fill="#3C2415" d="M98.1,68.85L91.6,68.85Q91.1,68.85 91.1,69.4 91.1,69.9 91.6,69.9L98.1,69.9Q98.65,69.9 98.65,69.4 98.65,68.85 98.1,68.85"/><path fill="#FED09E" d="M81.8,80.7L81.8,76.95Q81.15,77.15 80.6,77.7 79.7,78.55 79.7,79.75L79.7,82.2Q79.7,83.45 80.6,84.3 81.3,85 82.25,85.15 81.8,83 81.8,80.7"/><path fill="#3C2415" d="M86.75,66.95Q87.3,66.35 87.85,65.95L77.65,65.95 77.65,99Q77.65,110 85.4,117.75 93.15,125.5 104.15,125.5 115.15,125.5 122.9,117.75 130.65,110 130.65,99L130.65,65Q130.65,64.1 130.6,63.25L130.6,65.95 124.95,65.95Q125.15,71.6 126.65,82.25 126.65,80.65 126.8,79.25 126.9,78.1 127.15,77.1 127.35,76.15 127.65,75.35L127.9,74.9Q128.6,75.2 129.2,75.8 130.55,77.2 130.55,79.1L130.55,82.9Q130.55,84.8 129.2,86.15 127.8,87.5 125.9,87.5 125.85,87.5 125.8,87.5 124.8,90.7 122.8,93.55 118.85,99.2 112.45,101.7L112.45,107.95 114.55,107.95 114.55,110.55Q114.55,114.85 111.55,117.85 108.5,120.9 104.25,120.9 100,120.9 96.95,117.85 93.9,114.85 93.9,110.55L93.9,107.95 96.15,107.95 96.15,101.7Q89.75,99.2 85.85,93.55 83.85,90.7 82.85,87.5 82.75,87.5 82.65,87.5 80.75,87.5 79.4,86.15 78.05,84.8 78.05,82.9L78.05,79.1Q78.05,77.2 79.4,75.8 80.25,74.95 81.35,74.65 82.4,75.65 82.65,79.6 82.7,80 82.7,80.45 83.15,70.8 86.75,66.95"/><path fill="#E6BE91" d="M104.05,87.45L106.75,85.75 104.05,76.6 104.05,87.45"/><path fill="#FED09E" d="M106.75,85.75L104.05,87.45 104.05,118.9 104.3,118.9Q107.7,118.9 110.05,116.5 112.45,114.1 112.45,110.7L112.45,107.95 112.45,101.7Q118.85,99.2 122.8,93.55 124.8,90.7 125.8,87.5 126.15,86.35 126.4,85.15 126.75,83.25 126.8,81.3 126.8,81 126.8,80.7L126.8,79.25Q126.65,80.65 126.65,82.25 125.15,71.6 124.95,65.95L104.05,65.95 104.05,76.6 106.75,85.75"/><path fill="#3C2415" d="M116.75,69.9Q117.25,69.9 117.25,69.4 117.25,68.85 116.75,68.85L110.25,68.85Q109.7,68.85 109.7,69.4 109.7,69.9 110.25,69.9L116.75,69.9"/><path fill="#DBB58B" d="M127.15,77.1Q126.9,78.1 126.8,79.25L126.8,80.7Q126.8,81 126.8,81.3 126.75,83.25 126.4,85.15 127.3,85 128,84.3 128.85,83.45 128.85,82.2L128.85,79.75Q128.85,78.55 128,77.7 127.6,77.3 127.15,77.1"/><path fill="#E6BE91" d="M129.2,75.8Q128.6,75.2 127.9,74.9L127.65,75.35Q127.35,76.15 127.15,77.1 127.6,77.3 128,77.7 128.85,78.55 128.85,79.75L128.85,82.2Q128.85,83.45 128,84.3 127.3,85 126.4,85.15 126.15,86.35 125.8,87.5 125.85,87.5 125.9,87.5 127.8,87.5 129.2,86.15 130.55,84.8 130.55,82.9L130.55,79.1Q130.55,77.2 129.2,75.8"/><path fill="#E6BE91" d="M112.45,107.95L112.45,110.7Q112.45,114.1 110.05,116.5 107.7,118.9 104.3,118.9L104.05,118.9Q100.8,118.8 98.55,116.5 96.15,114.1 96.15,110.7L96.15,107.95 93.9,107.95 93.9,110.55Q93.9,114.85 96.95,117.85 100,120.9 104.25,120.9 108.5,120.9 111.55,117.85 114.55,114.85 114.55,110.55L114.55,107.95 112.45,107.95"/><path fill="#3D3D3E" d="M131.55,196.7L104.1,196.7 104.1,212.75Q98.3,212.75 94.2,216.85 90.1,220.95 90.1,226.75L90.1,329.25Q95.35,329.25 99.1,333 99.6,333.5 100.05,334.05L101.55,330Q101.55,329.85 101.55,329.7L101.55,221.95Q101.55,220.8 102.35,219.95 103.15,219.15 104.3,219.15 105.45,219.15 106.25,219.95 107.05,220.8 107.05,221.95L107.05,329.7Q107.05,332.4 108.05,334.7 108.7,333.8 109.5,333 113.25,329.25 118.55,329.25L131.55,329.25 131.55,196.7"/><path fill="#414042" d="M104.1,196.7L77.05,196.7 77.05,329.25 90.1,329.25 90.1,226.75Q90.1,220.95 94.2,216.85 98.3,212.75 104.1,212.75L104.1,196.7"/><path fill="#A97C50" d="M62.75,333Q59,336.75 58.95,342.05L102.85,342.05Q102.85,337.45 100.05,334.05 99.6,333.5 99.1,333 95.35,329.25 90.1,329.25L77.05,329.25 71.8,329.25Q66.5,329.25 62.75,333"/><path fill="#9A7148" d="M145.85,333Q142.1,329.25 136.8,329.25L131.55,329.25 118.55,329.25Q113.25,329.25 109.5,333 108.7,333.8 108.05,334.7 105.75,337.9 105.7,342.05L149.6,342.05Q149.6,336.75 145.85,333"/><g id="eye" transform="matrix(1 0 0 1 93 72.45)"><g style="display:none;"><path fill="#3C2415" d="M4.251,1.701Q4.251,1.151 3.901,1.151L-0.299,1.151Q-0.649,1.151 -0.649,1.701 -0.649,2.201 -0.299,2.201L3.901,2.201Q4.251,2.201 4.251,1.701"/><path fill="#3C2415" d="M23.351,1.701Q23.351,1.151 23.001,1.151L18.801,1.151Q18.451,1.151 18.451,1.701 18.451,2.201 18.801,2.201L23.001,2.201Q23.351,2.201 23.351,1.701"/><animate attributeName="display" repeatCount="indefinite" dur="0.792s" keyTimes="0;0.684;1" values="none;inline;inline"/></g><g><path fill="#3C2415" d="M2.051,0.051Q1.251,0.051 0.651,0.651 0.051,1.251 0.051,2.051 0.051,2.901 0.651,3.451 1.251,4.051 2.051,4.051 2.901,4.051 3.451,3.451 4.051,2.901 4.051,2.051 4.051,1.251 3.451,0.651 2.901,0.051 2.051,0.051"/><path fill="#3C2415" d="M20.651,0.051Q19.851,0.051 19.251,0.651 18.651,1.251 18.651,2.051 18.651,2.901 19.251,3.451 19.851,4.051 20.651,4.051 21.501,4.051 22.051,3.451 22.651,2.901 22.651,2.051 22.651,1.251 22.051,0.651 21.501,0.051 20.651,0.051"/><animate attributeName="display" repeatCount="indefinite" dur="0.792s" keyTimes="0;0.684;1" values="inline;none;none"/></g></g><g id="mulut" transform="matrix(1 0 0 1 100.05 92.9)"><path fill="#ED1C24" d="M8.101,0.051L0.051,0.051 4.051,1.551 8.101,0.051"/></g><path fill="#269FD3" d="M120.4,107.9L116.1,107.9 111.6,122.15Q113.7,121 115.55,119.2 120.3,114.55 120.4,107.9"/><path fill="#2495C6" d="M116.1,107.9L112.5,106 106.15,118.7 106.25,118.8 108.2,120.2 111.15,122.4Q111.35,122.25 111.6,122.15L116.1,107.9"/><path fill="#2087B3" d="M106.25,118.8L104.1,120.9Q106.65,120.9 108.2,120.2L106.25,118.8"/><path fill="#2495C6" d="M104.1,120.9L102.4,118.7Q101.9,119.05 101.45,119.45L100.6,120.1 100.5,120.15 100.55,120.15Q102.05,120.9 104.1,120.9"/><path fill="#269FD3" d="M111.15,122.4L108.2,120.2Q106.65,120.9 104.1,120.9L104.1,123.9 104.15,123.9Q107.95,123.9 111.15,122.4"/><path fill="#269FD3" d="M101.45,119.45Q101.9,119.05 102.4,118.7L96.1,106 92.5,107.9 97.05,122.3Q97.2,122.4 97.35,122.45L100.55,120.15 100.5,120.15 100.6,120.1 101.45,119.45"/><path fill="#674B2C" d="M115.55,119.2Q113.7,121 111.6,122.15 111.35,122.25 111.15,122.4 107.95,123.9 104.15,123.9L104.1,123.9Q100.45,123.9 97.35,122.45 97.2,122.4 97.05,122.3 94.75,121.15 92.75,119.2 88.05,114.55 87.95,107.9L85.25,107.9Q85.35,115.65 90.9,121.1 96.4,126.55 104.1,126.55L104.15,126.55Q111.95,126.55 117.45,121.1 123,115.65 123.05,107.9L120.4,107.9Q120.3,114.55 115.55,119.2"/><path fill="#27AAE1" d="M92.75,119.2Q94.75,121.15 97.05,122.3L92.5,107.9 87.95,107.9Q88.05,114.55 92.75,119.2"/><path fill="#27AAE1" d="M100.55,120.15L97.35,122.45Q100.45,123.9 104.1,123.9L104.1,120.9Q102.05,120.9 100.55,120.15"/><path fill="#A97C50" d="M68.3,114.35Q61.85,120.8 61.85,129.9L61.85,194.7 74.55,194.7Q74.1,193.9 73.9,192.9L73.85,139.65Q73.85,139.2 74.3,139.2 74.75,139.2 74.75,139.65L74.7,191.6Q74.7,194.7 76.95,196.95 79.15,199.15 82.3,199.15L126.3,199.15Q129.4,199.15 131.65,196.95 133.85,194.7 133.85,191.6L133.85,139.65Q133.85,139.2 134.25,139.2 134.7,139.2 134.7,139.65L134.7,167.55Q134.75,169.95 136.5,171.7 138.25,173.45 140.7,173.45 143.1,173.45 144.8,171.9 144.9,171.8 145,171.7 146.7,169.95 146.75,167.55L146.75,129.9Q146.75,124.9 144.8,120.7 143.2,117.25 140.3,114.35 133.85,107.9 124.75,107.9L123.05,107.9Q123,115.65 117.45,121.1 111.95,126.55 104.15,126.55 96.4,126.55 90.9,121.1 85.35,115.65 85.25,107.9L83.85,107.9Q74.75,107.9 68.3,114.35"/><path fill="#FFDAA2" d="M75.45,196.4L74.55,194.7 61.85,194.7 61.85,195.1Q61.45,195.65 61.1,196.5 60.6,197.7 60.6,199.3L60.6,211.2Q60.6,214.4 62.85,216.65 65.1,218.9 68.3,218.9 69.7,218.9 71.25,218.3L71.25,204Q71.25,203.35 71.9,203.35 72.5,203.35 72.5,204L72.5,212.15Q72.5,212.85 73,213.4 73.55,213.9 74.25,213.9 74.95,213.9 75.5,213.4 76,212.85 76,212.15L76,199.3Q76,197.8 75.45,196.4"/><path fill="#674B2C" d="M120.4,107.9Q120.3,114.55 115.55,119.2 110.8,123.9 104.15,123.9 97.5,123.9 92.75,119.2 88.05,114.55 87.95,107.9L85.25,107.9Q85.35,115.65 90.9,121.1 96.4,126.55 104.15,126.55 111.95,126.55 117.45,121.1 123,115.65 123.05,107.9L120.4,107.9"/><path fill="#E6E7E8" d="M127.4,107.9L124.25,107.9 124.25,123.9 84.6,123.9 84.6,107.9 81.4,107.9 81.4,155.75 74.1,155.75 74.1,281.9 134.75,281.9 134.75,155.75 127.4,155.75 127.4,107.9"/><g id="tanganKanan" transform="matrix(1 0 0 1 132.6 163.2)"><path fill="#A97C50" d="M2.1,4.4L2.1,8.7 2.075,8.7 2.05,29.7Q1.9,30.7 1.45,31.5L14.15,31.5 14.15,4.4 2.1,4.4"/><path fill="#FED09E" d="M0.601,33.251Q0.051,34.501 0.051,36.151L0.051,49.001Q0.051,49.701 0.551,50.251 1.051,50.751 1.751,50.751 2.501,50.751 3.001,50.251 3.501,49.701 3.501,49.001L3.501,40.851Q3.501,40.201 4.151,40.201 4.751,40.201 4.751,40.851L4.751,55.151Q6.401,55.751 7.751,55.751 10.951,55.751 13.201,53.501 15.451,51.251 15.451,48.051L15.451,36.151Q15.451,34.701 14.901,33.351L14.201,31.951 14.201,31.551 1.501,31.551 1.151,32.101 0.601,33.251"/><path fill="#A97C50" d="M12.4,8.7Q14.15,6.9 14.15,4.4 14.15,1.95 12.4,0.2 10.65,-1.6 8.1,-1.6 5.65,-1.6 3.9,0.2 2.1,1.95 2.1,4.4 2.1,6.9 3.9,8.7 5.65,10.45 8.1,10.45 10.65,10.45 12.4,8.7"/></g></g></svg>