<?xml version="1.0" encoding="utf-8"?>
<!-- Generator: Adobe Illustrator 16.0.0, SVG Export Plug-In . SVG Version: 6.00 Build 0)  -->
<!DOCTYPE svg PUBLIC "-//W3C//DTD SVG 1.1//EN" "http://www.w3.org/Graphics/SVG/1.1/DTD/svg11.dtd">
<svg version="1.1" id="Layer_1" xmlns="http://www.w3.org/2000/svg" xmlns:xlink="http://www.w3.org/1999/xlink" x="0px" y="0px"
	 width="423.998px" height="281.401px" viewBox="0 0 423.998 281.401" enable-background="new 0 0 423.998 281.401"
	 xml:space="preserve">
<g>
	<rect x="1.485" fill="none" width="422.513" height="281.402"/>
	<g>
		<g>
			<rect x="171" y="132.919" fill="#918F8F" width="3.033" height="3.027"/>
			<rect x="174.568" y="132.919" fill="#918F8F" width="3.01" height="3.027"/>
			<rect x="178.113" y="132.919" fill="#918F8F" width="3.031" height="3.027"/>
			<rect x="181.673" y="132.919" fill="#918F8F" width="3.021" height="3.027"/>
			<rect x="171" y="129.419" fill="#918F8F" width="3.033" height="3.027"/>
			<rect x="174.568" y="129.419" fill="#918F8F" width="3.01" height="3.027"/>
			<rect x="178.113" y="129.419" fill="#918F8F" width="3.031" height="3.027"/>
			<rect x="181.673" y="129.419" fill="#918F8F" width="3.021" height="3.027"/>
			<rect x="188.785" y="129.419" fill="#918F8F" width="3.026" height="3.027"/>
			<rect x="171" y="125.94" fill="#918F8F" width="3.033" height="3.021"/>
			<rect x="174.568" y="125.94" fill="#918F8F" width="3.01" height="3.021"/>
			<rect x="181.673" y="125.94" fill="#918F8F" width="3.021" height="3.021"/>
			<rect x="185.224" y="125.94" fill="#918F8F" width="3.029" height="3.021"/>
			<rect x="188.785" y="125.94" fill="#918F8F" width="3.026" height="3.021"/>
			<rect x="174.568" y="122.444" fill="#918F8F" width="3.01" height="3.023"/>
			<rect x="178.113" y="122.444" fill="#918F8F" width="3.031" height="3.023"/>
			<rect x="181.673" y="122.444" fill="#918F8F" width="3.021" height="3.023"/>
			<rect x="185.224" y="122.444" fill="#918F8F" width="3.029" height="3.023"/>
			<rect x="192.336" y="122.444" fill="#918F8F" width="3.04" height="3.023"/>
			<rect x="174.568" y="118.956" fill="#918F8F" width="3.01" height="3.026"/>
			<rect x="178.113" y="118.956" fill="#918F8F" width="3.031" height="3.026"/>
			<rect x="181.673" y="118.956" fill="#918F8F" width="3.021" height="3.026"/>
			<rect x="185.224" y="118.956" fill="#918F8F" width="3.029" height="3.026"/>
			<rect x="188.785" y="118.956" fill="#918F8F" width="3.026" height="3.026"/>
			<rect x="192.336" y="118.956" fill="#918F8F" width="3.04" height="3.026"/>
			<rect x="195.892" y="118.956" fill="#918F8F" width="3.028" height="3.026"/>
			<rect x="203.016" y="118.956" fill="#918F8F" width="3.026" height="3.026"/>
			<rect x="181.673" y="115.467" fill="#918F8F" width="3.021" height="3.025"/>
			<rect x="185.224" y="115.467" fill="#918F8F" width="3.029" height="3.025"/>
			<rect x="192.336" y="115.467" fill="#918F8F" width="3.04" height="3.025"/>
			<rect x="199.453" y="115.467" fill="#918F8F" width="3.025" height="3.025"/>
			<rect x="178.113" y="111.977" fill="#918F8F" width="3.031" height="3.029"/>
			<rect x="181.673" y="111.977" fill="#918F8F" width="3.021" height="3.029"/>
			<rect x="185.224" y="111.977" fill="#918F8F" width="3.029" height="3.029"/>
			<rect x="188.785" y="111.977" fill="#918F8F" width="3.026" height="3.029"/>
			<rect x="192.336" y="111.977" fill="#918F8F" width="3.04" height="3.029"/>
			<rect x="199.453" y="111.977" fill="#918F8F" width="3.025" height="3.029"/>
			<rect x="217.227" y="111.977" fill="#918F8F" width="3.042" height="3.029"/>
			<rect x="181.673" y="108.482" fill="#918F8F" width="3.021" height="3.026"/>
			<rect x="188.785" y="108.482" fill="#918F8F" width="3.026" height="3.026"/>
			<rect x="195.892" y="108.482" fill="#918F8F" width="3.028" height="3.026"/>
			<rect x="203.016" y="108.482" fill="#918F8F" width="3.026" height="3.026"/>
			<rect x="192.336" y="104.992" fill="#918F8F" width="3.04" height="3.029"/>
			<rect x="199.453" y="104.992" fill="#918F8F" width="3.025" height="3.029"/>
			<rect x="195.892" y="101.508" fill="#918F8F" width="3.028" height="3.026"/>
			<rect x="203.016" y="101.508" fill="#918F8F" width="3.026" height="3.026"/>
			<rect x="210.115" y="101.508" fill="#918F8F" width="3.031" height="3.026"/>
			<rect x="192.336" y="98.01" fill="#918F8F" width="3.04" height="3.031"/>
			<rect x="210.115" y="94.521" fill="#918F8F" width="3.031" height="3.031"/>
			<rect x="220.782" y="94.521" fill="#918F8F" width="3.033" height="3.031"/>
			<rect x="210.115" y="91.03" fill="#918F8F" width="3.031" height="3.034"/>
			<rect x="210.115" y="87.542" fill="#918F8F" width="3.031" height="3.029"/>
			<rect x="213.681" y="84.052" fill="#918F8F" width="3.021" height="3.032"/>
			<rect x="162.703" y="126.189" width="7.74" height="1.451"/>
			<path fill="#918F8F" d="M170.525,136.53h0.477H183.5c-3.609,4.041-12.101,10.883-31.337,17.711
				c-34.111,12.125-67.449-2.432-47.931-30.146c19.085-27.13,49.315-33.524,52.479-34.049c3.153-0.529,8.432-0.857,5.863-0.071
				c-2.573,0.801-7.379,2.777-7.105,3.494c0.26,0.73,3.418-0.061,5.185-0.331c1.788-0.259,1.788,0.989,0.732,1.523
				c-1.048,0.521-1.903,0-1.252,0.65c0.668,0.663,0.273,1.118-0.794,1.584c-1.045,0.461-3.945,0.258-4.936,1.19
				c-0.988,0.909,1.838,0.909,3.82,0.123c1.98-0.786,2.429-0.986,4.616-1.117c2.166-0.127,0.126,1.19,1.18,1.648
				c1.056,0.459,6.394-0.594,5.009,0.255c-1.381,0.862,2.637,0.862-0.138,1.656c-2.767,0.788-28.706,3.688-48.593,16.727
				c-19.891,13.036-22.521,40.029,11.328,33.314c24.678-4.896,35-16.166,38.787-21.906v7.743H170.525z M155.334,100.774
				c-1.712-0.19-1.576,0.393-2.05,0.626c-0.593,0.293,1.121,0.561,2.445,0.507C157.044,101.831,157.044,100.974,155.334,100.774
				 M154.074,94.662c-1.243-0.135-1.182,0.256-2.826,0.521c-1.644,0.27-2.576,1.972-0.928,1.783c1.65-0.203,2.373-0.266,3.824-0.865
				C155.587,95.514,154.074,94.662,154.074,94.662"/>
			<path fill="#F68B1F" d="M127.257,127.334c0-8.915,7.217-16.134,16.127-16.134c8.922,0,16.141,7.219,16.141,16.134
				c0,8.907-7.219,16.126-16.141,16.126C134.474,143.46,127.257,136.241,127.257,127.334"/>
			<path fill="#FFFFFF" d="M132.444,120.306c-0.704-1.588,0.017-3.454,1.604-4.169c1.6-0.701,3.47,0.012,4.178,1.605
				c0.719,1.596,0,3.464-1.6,4.174C135.033,122.628,133.162,121.901,132.444,120.306"/>
			<path fill="#918F8F" d="M168.432,89.978c0-0.726-3.095-0.784-3.554-0.125c-0.457,0.652-2.104,0.396-2.246,0.983
				c-0.117,0.603,1.39,0.459,2.705-0.057C166.667,90.248,168.432,90.704,168.432,89.978"/>
			<path fill="#918F8F" d="M170.739,92.02c-0.458-0.521-3.491-0.725-4.413-0.266c-0.928,0.468-2.109,0.933-2.699,0.933
				c-0.592,0,0.27,0.723,1.848,0.723c1.574,0,1.381-0.403,2.958-0.137C170.013,93.536,171.196,92.552,170.739,92.02"/>
			<path fill="#918F8F" d="M166.326,94.784c-1.638,0.398-2.035,0.595-2.899,0.797c-0.855,0.196-0.062,0.854,1.849,0.457
				c1.911-0.388,2.499-0.524,3.42-0.586c0.932-0.073,0.792-0.925-0.332-0.993C167.252,94.396,166.326,94.784,166.326,94.784"/>
			<path fill="#918F8F" d="M173.304,94.192c-0.5-0.748-2.043-0.262-2.702,0.134c-0.645,0.401-0.522,0.458,0.594,0.656
				C172.321,95.183,173.339,94.527,173.304,94.192"/>
			<path fill="#918F8F" d="M177.386,95.71c-0.411-0.196-3.684,0.266-4.209,0.135c-0.529-0.135-1.254,0.523-2.376,0.523
				c-1.118,0-2.89,0.07-2.233,0.79c0.661,0.724,3.493,0.333,4.736,0.063c1.264-0.256,2.57-0.854,3.76-0.587
				C178.243,96.893,177.552,95.754,177.386,95.71"/>
			<rect x="83.751" y="126.137" width="39.768" height="1.454"/>
			<rect x="142.695" y="148.466" width="1.438" height="39.77"/>
			<rect x="142.695" y="66.019" width="1.438" height="39.76"/>
			<rect x="192.372" y="126.189" width="115.228" height="1.451"/>
			<path fill="#D82C25" d="M307.486,126.911c0-1.596,1.299-2.895,2.902-2.895c1.605,0,2.896,1.299,2.896,2.895
				c0,1.604-1.291,2.902-2.896,2.902C308.785,129.813,307.486,128.515,307.486,126.911"/>
			<path fill="#D82C25" d="M140.514,63.202c0-1.593,1.286-2.893,2.896-2.893c1.605,0,2.903,1.3,2.903,2.893
				c0,1.605-1.298,2.91-2.903,2.91C141.8,66.112,140.514,64.808,140.514,63.202"/>
			<path d="M189.183,178.384c0,3.068-0.93,5.438-2.779,7.117c-1.857,1.686-4.676,2.525-8.467,2.525h-14.363v-29.922h14.458
				c3.696,0,6.372,0.67,8.013,2.012c1.631,1.344,2.46,3.266,2.46,5.779c0,1.631-0.358,2.879-1.059,3.73
				c-0.692,0.855-1.543,1.568-2.542,2.139c1.37,0.564,2.432,1.383,3.166,2.453C188.816,175.281,189.183,176.673,189.183,178.384
				 M180.367,167.013c0-0.656-0.176-1.223-0.547-1.686c-0.372-0.453-1.049-0.686-2.053-0.686h-6.24v4.748h6.24
				c0.973,0,1.65-0.215,2.035-0.654C180.181,168.308,180.367,167.732,180.367,167.013 M181.058,178.537
				c0-0.887-0.24-1.588-0.722-2.098c-0.489-0.514-1.229-0.77-2.224-0.77h-6.586v5.813h6.535c1.023,0,1.785-0.275,2.274-0.83
				C180.818,180.091,181.058,179.392,181.058,178.537"/>
			<rect x="192.509" y="158.105" width="8.477" height="29.918"/>
			<path d="M224.833,188.023l-7.145-9.873c-0.345-0.457-0.727-1.02-1.194-1.688c-0.46-0.674-0.914-1.344-1.346-2.01
				c-0.443-0.67-0.855-1.313-1.243-1.912c-0.374-0.588-0.68-1.063-0.876-1.4c0.057,0.338,0.092,0.814,0.127,1.43
				c0.031,0.617,0.057,1.283,0.082,2.012c0.031,0.725,0.051,1.475,0.051,2.244v2.047v9.15h-7.949v-29.918h7.307l6.585,8.848
				c0.342,0.453,0.751,1.018,1.214,1.713c0.475,0.672,0.938,1.357,1.391,2.047c0.457,0.682,0.872,1.33,1.243,1.92
				c0.372,0.602,0.644,1.061,0.81,1.365c-0.056-0.336-0.1-0.811-0.123-1.428c-0.028-0.615-0.064-1.277-0.101-2.008
				c-0.017-0.732-0.03-1.471-0.03-2.244v-2.057v-8.156h7.948v29.918H224.833z"/>
			<path d="M260.799,181.314c-0.663,1.674-1.597,3.057-2.785,4.121c-1.182,1.063-2.565,1.842-4.183,2.326
				c-1.618,0.48-3.351,0.73-5.236,0.73c-1.881,0-3.622-0.25-5.218-0.73c-1.598-0.484-2.974-1.264-4.124-2.326
				c-1.146-1.064-2.053-2.447-2.706-4.121c-0.673-1.678-0.991-3.715-0.991-6.068v-17.137h8.46v17.137
				c0,1.85,0.381,3.307,1.134,4.355c0.765,1.061,1.938,1.584,3.568,1.584s2.807-0.523,3.524-1.584c0.731-1.049,1.1-2.506,1.1-4.355
				v-17.137h8.462v17.137C261.804,177.599,261.47,179.636,260.799,181.314"/>
			<path d="M289.587,178.837c0,1.707-0.312,3.168-0.923,4.4c-0.611,1.223-1.47,2.221-2.571,2.992
				c-1.09,0.758-2.39,1.338-3.899,1.711c-1.512,0.367-3.164,0.555-4.96,0.555c-2.424,0-4.737-0.355-6.944-1.055
				c-2.208-0.699-4.095-1.555-5.672-2.58l4.024-6.498c0.538,0.373,1.176,0.738,1.905,1.086c0.719,0.361,1.478,0.686,2.266,0.961
				c0.776,0.289,1.569,0.512,2.368,0.689c0.8,0.166,1.537,0.26,2.225,0.26c1.476,0,2.509-0.146,3.049-0.438
				c0.56-0.277,0.847-0.777,0.847-1.49c0-0.279-0.084-0.543-0.235-0.768c-0.165-0.229-0.443-0.453-0.827-0.668
				c-0.382-0.215-0.89-0.426-1.552-0.643c-0.656-0.205-1.483-0.432-2.48-0.662c-1.794-0.42-3.366-0.877-4.695-1.363
				c-1.353-0.484-2.459-1.092-3.334-1.818c-0.887-0.725-1.555-1.6-1.998-2.635c-0.437-1.02-0.66-2.283-0.66-3.795
				c0-1.395,0.278-2.678,0.83-3.848c0.565-1.172,1.354-2.164,2.38-2.992c1.023-0.828,2.256-1.465,3.712-1.922
				c1.456-0.459,3.078-0.688,4.876-0.688c2.567,0,4.792,0.301,6.688,0.896c1.895,0.602,3.645,1.453,5.235,2.563l-4.018,6.498
				c-1.341-0.906-2.674-1.607-4.016-2.088c-1.339-0.486-2.781-0.729-4.317-0.729c-1.256,0-2.08,0.168-2.478,0.508
				c-0.395,0.348-0.594,0.789-0.594,1.33c0,0.281,0.077,0.537,0.226,0.74c0.15,0.217,0.43,0.418,0.786,0.604
				c0.38,0.18,0.882,0.375,1.497,0.563c0.626,0.178,1.435,0.391,2.398,0.615c1.88,0.455,3.512,0.951,4.877,1.492
				c1.366,0.549,2.49,1.18,3.371,1.922c0.887,0.748,1.543,1.633,1.973,2.656C289.371,176.226,289.587,177.435,289.587,178.837"/>
			<g>
				<path fill="#0097DA" d="M172.017,221.091c-5.061,0-8.473-3.414-8.473-9.521v-11.766h4.191v11.707
					c0,3.352,1.616,5.479,4.281,5.479c2.664,0,4.311-2.066,4.311-5.42v-11.766h4.191v11.707
					C180.519,217.587,177.345,221.091,172.017,221.091z"/>
				<path fill="#0097DA" d="M198.992,220.761l-7.694-11.436c-0.509-0.779-1.198-1.826-1.467-2.365c0,0.777,0.06,3.412,0.06,4.58
					v9.221h-4.131v-20.957h4.012l7.424,11.078c0.51,0.777,1.197,1.826,1.467,2.365c0-0.779-0.06-3.414-0.06-4.58v-8.863h4.132
					v20.957H198.992z"/>
				<path fill="#0097DA" d="M208.422,220.761v-20.957h4.191v20.957H208.422z"/>
				<path fill="#0097DA" d="M228.332,220.761h-4.071l-7.455-20.957h4.641l3.952,12.125c0.389,1.168,0.808,2.695,0.987,3.443
					c0.18-0.777,0.569-2.215,0.958-3.443l3.862-12.125h4.58L228.332,220.761z"/>
				<path fill="#0097DA" d="M239.678,220.761v-20.957h14.55v4.102H243.87v3.623h6.018v4.072h-6.018v5.059h10.808v4.102H239.678z"/>
				<path fill="#0097DA" d="M271.292,220.761l-3.742-7.545h-4.221v7.545h-4.191v-20.957h9.76c3.952,0,7.215,2.186,7.215,6.646
					c0,3.145-1.347,5.119-4.012,6.168l4.012,8.143H271.292z M268.808,203.876h-5.479v5.389h5.479c1.946,0,2.994-0.898,2.994-2.725
					C271.802,204.656,270.665,203.876,268.808,203.876z"/>
				<path fill="#0097DA" d="M287.639,221.091c-3.503,0-6.556-1.467-8.143-3.803l3.023-2.693c1.467,1.705,3.354,2.395,5.358,2.395
					c2.485,0,3.653-0.689,3.653-2.275c0-1.348-0.719-1.945-4.671-2.844c-3.861-0.898-6.557-2.127-6.557-6.258
					c0-3.803,3.354-6.137,7.485-6.137c3.263,0,5.658,1.227,7.634,3.293l-3.023,2.934c-1.348-1.377-2.845-2.156-4.761-2.156
					c-2.245,0-2.993,0.959-2.993,1.887c0,1.318,0.897,1.736,4.221,2.516c3.323,0.777,7.006,1.916,7.006,6.467
					C295.873,218.396,293.358,221.091,287.639,221.091z"/>
				<path fill="#0097DA" d="M300.604,220.761v-20.957h4.191v20.957H300.604z"/>
				<path fill="#0097DA" d="M319.344,203.937v16.824h-4.191v-16.824h-6.016v-4.133h16.225v4.133H319.344z"/>
				<path fill="#0097DA" d="M339.492,212.468v8.293h-4.191v-8.203l-7.934-12.754h4.82l2.965,4.971
					c0.748,1.258,1.885,3.322,2.275,4.102c0.389-0.779,1.496-2.785,2.275-4.102l2.963-4.971h4.76L339.492,212.468z"/>
			</g>
			<path fill="#D82C25" d="M140.541,191.037c0-1.602,1.301-2.9,2.902-2.9c1.596,0,2.893,1.299,2.893,2.9
				c0,1.598-1.297,2.896-2.893,2.896C141.841,193.933,140.541,192.634,140.541,191.037"/>
			<path fill="#D82C25" d="M78.055,126.864c0-1.599,1.288-2.898,2.894-2.898s2.893,1.3,2.893,2.898s-1.287,2.897-2.893,2.897
				S78.055,128.463,78.055,126.864"/>
		</g>
	</g>
</g>
</svg>
