<?xml version="1.0" encoding="utf-8"?><svg id="Layer_1" xmlns="http://www.w3.org/2000/svg" width="197.989" height="197.991" viewBox="0 0 197.989 197.991"><path fill="#FFF" d="M33.82 173.505l-1.77 18.802 17.034-7.808c14.654 8.572 31.708 13.49 49.91 13.49 54.674 0 98.995-44.32 98.995-98.994C197.99 44.323 153.667 0 98.993 0S0 44.324 0 98.997c0 29.713 13.093 56.363 33.82 74.51z"/><path fill="#F1F2F2" d="M120.16 195.714c44.503-9.694 77.83-49.31 77.83-96.72C197.99 44.323 153.667 0 98.994 0c-10.492 0-20.6 1.638-30.09 4.662 8.08-2.132 16.562-3.274 25.31-3.274 54.614 0 98.888 44.274 98.888 98.887 0 45.634-30.915 84.04-72.943 95.44z"/></svg>