<?xml version="1.0" encoding="utf-8"?><svg xmlns="http://www.w3.org/2000/svg" viewBox="359.496 140.501 269 334.081"><circle fill="#FFDE17" cx="536.8" cy="302.4" r="55"/><circle fill="#FFF" cx="536.8" cy="302.4" r="49.5"/><g fill="#F7941E"><path d="M545.6 257c4.2 0 6.4 3.3 5 7.2l-11 29.4c-1.6 4-4 4-5.5 0l-11-29.4c-1.4-4 .8-7 5-7h17.6zM507 267.2c2.5-3.3 6.4-3 8.5.6l16 27c2.3 3.6.8 5.5-3.2 4.2l-30-9.7c-4-1.3-5-5-2.4-8.3l11-13.8zM490.7 303.8c-1-4 1.7-7 5.8-6.4l31.2 4.3c4 .5 4.6 3 1.2 5.2L502.5 324c-3.4 2.3-7 1-8-3.2l-4-17.2zM509.2 339.3c-3.8-1.8-4.4-5.7-1.3-8.5l22.6-21.7c3-2.8 5.2-1.8 4.8 2.4l-2.8 31.3c-.3 4-3.7 6-7.5 4.3l-15.8-7.7zM548.5 347c-3.8 1.8-7.2-.2-7.5-4.3l-2.8-31.3c-.4-4.2 1.8-5.2 4.8-2.3l22.7 21.8c3 2.8 2.5 6.7-1.3 8.5l-16 7.7zM579 321c-1 4-4.6 5.5-8 3.2L544.6 307c-3.5-2.4-3-4.8 1.2-5.3l31-4.3c4.2-.5 6.8 2.3 6 6.4l-4 17.2zM577.7 281c2.6 3.3 1.5 7-2.5 8.3l-30 9.7c-4 1.3-5.4-.6-3.2-4.2l16-27c2.2-3.6 6-4 8.7-.6l11 13.8z"/></g><path fill="#27AAE1" d="M392 273v168.5h7.5v-170c0-7.7-6.3-14-14-14h-26v6.5H383c5 0 9 4 9 9z"/><path fill="#39B54A" d="M526 293v148.5h-7.5v-150c0-7.7 6.3-14 14-14h96v6.5H535c-5 0-9 4-9 9z"/><path fill="#EF4136" d="M461.2 156v284.5h-7.5v-286c0-7.7 6.3-14 14-14h26v6.5h-23.5c-5 0-9 4-9 9z"/><path fill="#F1F2F2" d="M531.4 301.6h-148c-5.6 0-10 4.5-10 10v153c0 5.5 4.4 10 10 10h148c5.5 0 10-4.5 10-10v-153c0-5.5-4.5-10-10-10zm.3 18.8v115.3c0 5-4 9-9 9H392c-5 0-9-4-9-9V311.6H532v8.8z"/><path opacity=".8" fill="#FFDE17" d="M520.4 334.2c-25-.7-50-5.6-50-5.6-.5 3.7-26 2.5-26 2.5-27.5.3-61.3 3.2-61.3 3.2v101.5c0 5 4 9 9 9h130.8c5 0 9-4 9-9V334.2h-11.4z"/><path opacity=".8" fill="#E1F4FD" d="M531.7 311.6H383v22.6s34-3 61.4-3c0 0 25.5 1 26-2.6 0 0 25 5 50 5.6h11.3v-22.6z"/><path opacity=".5" fill="#FFF" d="M477 383c-.6 1.4-2.4 2-4 1.4l-39.6-18c-1.6-.8-2.2-2.6-1.5-4.2l18-39.6c.7-1.5 2.5-2.2 4-1.5l39.7 18.2c1.5.7 2.2 2.5 1.5 4l-18 39.7z"/><path opacity=".5" fill="#FFF" d="M445.6 376.5c.4 1.6-.7 3.3-2.4 3.6l-42.5 9.3c-1.7.4-3.3-.7-3.7-2.3l-9.2-42.6c-.3-1.7.7-3.3 2.4-3.7l42.6-9.2c1.6-.3 3.3.7 3.6 2.4l9.2 42.5z"/><path opacity=".5" fill="#FFF" d="M448.4 352c.2 1.2-.5 2.4-1.7 2.6L417 361c-1 .3-2.2-.4-2.5-1.6l-6.4-29.6c-.2-1.2.5-2.3 1.7-2.6l29.7-6.4c1-.3 2.3.5 2.5 1.6l6.4 29.7z"/><path fill="#E7F6FD" d="M384.2 466H530c-6.2-7.3-36.5-12.8-73-12.8-36.4 0-66.7 5.5-72.8 12.7z"/></svg>