<?xml version="1.0" encoding="utf-8"?><svg id="Layer_1" xmlns="http://www.w3.org/2000/svg" width="30" height="30" viewBox="0 0 30 30"><circle fill="#28A8E0" cx="15" cy="15" r="15"/><path fill="#FFF" d="M15.52 14.93l4.442-5.847c.018-.027.364-.585-.236-.63h-9.454c-.557.042-.3.522-.245.615l4.452 5.86v.003-.002c.012.065.603 3.162.233 7.567 0 0-.097.763-.777.825-1.082.024-1.85.088-1.85.158 0 .095 1.305.17 2.914.17 1.607 0 2.912-.075 2.912-.17 0-.07-.76-.133-1.83-.156-.605-.06-.746-.668-.77-.8-.334-3.93.098-6.824.207-7.462v-.13z"/></svg>