<?xml version="1.0" encoding="utf-8"?><svg xmlns="http://www.w3.org/2000/svg" width="30" height="30" viewBox="0 0 30 30"><circle fill="#603A17" cx="15" cy="15" r="15"/><g fill="#FFF"><path d="M5.292 20.033h19.416v.9H5.292zM15.9 11.154c.21-.224.34-.52.34-.85 0-.686-.557-1.24-1.24-1.24-.687 0-1.242.557-1.242 1.24 0 .33.13.626.342.85-4.03.446-7.168 3.854-7.188 8H23.09c-.024-4.145-3.158-7.55-7.19-8zm-.9-1.64c.437 0 .79.355.79.792 0 .436-.354.79-.79.79-.437 0-.79-.355-.79-.79 0-.437.353-.79.79-.79zm-6.692 9.038H7.63c.326-3.795 3.502-6.772 7.38-6.772.114 0 .228.013.34.018-3.72.166-6.725 3.07-7.042 6.754z"/></g></svg>