<?xml version="1.0" encoding="utf-8"?><svg xmlns="http://www.w3.org/2000/svg" viewBox="118 103.592 595.593 368.505"><path fill="#414042" d="M292.083 325.035h421.46v3.778h-421.46z"/><path fill="#FFF" d="M566.085 323.853h143.79v1.182h-143.79z"/><path d="M443.546 348.837h118.588V461.69H443.546z"/><path fill="#E6E7E8" d="M443.546 461.67h118.588v10.425H443.546zM443.546 328.82h118.588v20.016H443.546z"/><circle cx="490.84" cy="338.658" r="3.543"/><circle cx="502.84" cy="338.658" r="4.375"/><circle cx="514.84" cy="338.658" r="3.543"/><path fill="#A7A9AC" d="M541.673 356.45c0 .828-.672 1.5-1.5 1.5h-74.667c-.828 0-1.5-.672-1.5-1.5 0-.827.672-1.5 1.5-1.5h74.667c.828 0 1.5.673 1.5 1.5z"/><path fill="#603913" d="M292.083 358.29h75.59V472.1h-75.59zM367.956 358.292h75.588v113.805h-75.588z"/><path fill="#59340F" d="M341.716 328.813c-.98 2.172-3.16 3.687-5.696 3.687h-12.284c-2.537 0-4.716-1.515-5.696-3.687h-25.957v29.18h75.59v-29.18h-25.957zM417.588 328.813c-.98 2.172-3.16 3.687-5.696 3.687h-12.284c-2.537 0-4.716-1.515-5.696-3.687h-25.956v29.18h75.59v-29.18h-25.958z"/><path fill="#E6E7E8" d="M357.17 392.785h2v18.25h-2zM376.46 392.785h2v18.25h-2z"/><path fill="#603913" d="M562.133 358.29h75.588V472.1h-75.587zM638.005 358.292h75.588v113.805h-75.588z"/><path fill="#59340F" d="M611.764 328.813c-.98 2.172-3.16 3.687-5.696 3.687h-12.283c-2.537 0-4.717-1.515-5.695-3.687h-25.956v29.18h75.588v-29.18h-25.958zM687.636 328.813c-.98 2.172-3.16 3.687-5.696 3.687h-12.284c-2.537 0-4.717-1.515-5.694-3.687h-25.957v29.18h75.588v-29.18h-25.957z"/><path fill="#E6E7E8" d="M627.217 392.785h2v18.25h-2zM646.508 392.785h2v18.25h-2z"/><path fill="#D1D3D4" d="M118 134.036h172.348v338.06H118z"/><path fill="#939598" d="M189.495 134.035h4.355v331.56h-4.355z"/><path d="M118 465.52h172.348v6.575H118z"/><path fill="#414042" d="M175.182 236.432c0 1.004-.814 1.818-1.818 1.818h-47.728c-1.005 0-1.818-.814-1.818-1.818V215.07c0-1.005.813-1.82 1.818-1.82h47.728c1.004 0 1.818.815 1.818 1.82v21.362z"/><path d="M123.818 235.22v1.212c0 1.004.813 1.818 1.818 1.818h47.728c1.004 0 1.818-.814 1.818-1.818v-1.212h-51.364z"/><path fill="#F1F2F2" d="M200.435 295.242l-6.583 2.693v-123.29l6.583 2.695M182.91 295.242l6.585 2.693v-123.29l-6.584 2.695"/><path fill="#603913" d="M292.083 103.592h59.974v113.395h-59.974zM352.34 103.592h59.973v113.395H352.34zM412.595 103.592h59.973v113.395h-59.973zM533.57 103.592h180.02v66.693H533.57zM533.57 170.57h180.02v46.41H533.57z"/><path fill="#603913" d="M533.57 170.57h180.02v46.41H533.57z"/><path fill="#E6E7E8" d="M360.844 191.45h2v18.25h-2zM341.552 191.45h2v18.25h-2z"/><path fill="#F1F2F2" d="M542.25 112.5H615v49h-72.75zM542.25 178.167H705v31.667H542.25zM631.917 112.5h72.75v49h-72.75z"/><path fill="#E6E7E8" d="M421.1 191.45h2v18.25h-2z"/><path fill="none" stroke="#414042" stroke-miterlimit="10" d="M518.917 325.833l1.625-3h4.125M540.667 325.833l-1.625-3h-4.125M529.84 322.28v3.095M464.916 325.833l1.625-3h4.126M486.666 325.833l-1.625-3h-4.124M475.84 322.28v3.095"/><path fill="#ED1C24" d="M512.97 307.925v11.563c0 1.42 1.15 2.57 2.568 2.57h28.268c1.42 0 2.568-1.15 2.568-2.57v-11.563H512.97z"/><path fill="#D1D3D4" d="M546 307.925c-2.405-.936-8.87-1.605-16.487-1.605-7.62 0-14.082.672-16.488 1.605H546z"/><path d="M532.725 306.312v-1.283c0-.853-.688-1.542-1.54-1.542h-3.342c-.853 0-1.54.69-1.54 1.54v1.284h6.422zM494.5 310.39h24.41v3.318H494.5z"/><g fill="#58595B"><circle cx="593.792" cy="231.133" r="4.724"/><circle cx="691.542" cy="231.133" r="4.724"/><path d="M593.792 229.758h98v2.75h-98z"/></g><g fill="#58595B"><circle cx="334.791" cy="231.133" r="4.724"/><circle cx="432.541" cy="231.133" r="4.724"/><path d="M334.79 229.758h98v2.75h-98z"/></g><path fill="#939598" d="M660.585 323.865h-3V305.64c0-5.203-4.232-9.436-9.436-9.436s-9.437 4.232-9.437 9.436h-3c0-6.857 5.578-12.436 12.436-12.436 6.855 0 12.435 5.58 12.435 12.436v18.225z"/><path fill="#939598" d="M640.335 309.28v-1.333c0-1.748-1.42-3.166-3.168-3.166-1.747 0-3.166 1.42-3.166 3.167v1.334h6.335z"/><path fill="#8DC63F" d="M673.367 288.42s4.723 6.796 4.723 16.526v18.89h-11.448v-18.89c0-9.73 4.722-16.526 4.722-16.526h2.003z"/><path fill="#39B54A" d="M671.346 284.538h2.04v3.864h-2.04z"/><path fill="#FFDE17" d="M672.838 284.544v-1.128c0-.26-.212-.47-.472-.47s-.472.21-.472.47v1.128h.944z"/><path fill="#FFF" d="M676.135 322.738V306.47c0-2.08-1.688-3.768-3.77-3.768s-3.768 1.688-3.768 3.77v16.266h7.538z"/><path d="M612.876 238.144c-1.52 0-2.75 1.23-2.75 2.75l1 26h3.5l1-26c0-1.52-1.23-2.75-2.75-2.75zm-.01 4.188c-.71 0-1.28-.574-1.28-1.28s.57-1.282 1.28-1.282 1.28.574 1.28 1.28-.573 1.282-1.28 1.282z"/><circle fill="#ED1C24" cx="612.876" cy="280.081" r="16.75"/><circle fill="#E6E7E8" cx="612.876" cy="280.081" r="10.25"/><g><path d="M639.544 238.144c-.99 0-1.792.803-1.792 1.792l.65 16.944h2.28l.652-16.944c.002-.99-.802-1.792-1.79-1.792zm-.008 2.73c-.462 0-.835-.375-.835-.836s.374-.835.836-.835c.46 0 .835.374.835.835s-.373.835-.834.835z"/><circle fill="#ED1C24" cx="639.544" cy="265.475" r="10.916"/><circle fill="#E6E7E8" cx="639.544" cy="265.475" r="6.68"/></g><path fill="none" stroke="#000" stroke-linecap="round" stroke-miterlimit="10" d="M612.835 240.5v-11.167M639.5 240.5v-11.167"/><g><path fill="#17629E" d="M671.69 238.127l10.84 10.842-12.727 12.726-10.842-10.842z"/><circle fill="none" stroke="#17629E" stroke-width="2" stroke-miterlimit="10" cx="665.693" cy="243.166" r="3.656"/></g><path fill="none" stroke="#000" stroke-linecap="round" stroke-miterlimit="10" d="M665.167 240.5v-11.167"/><g><path fill="#6D6E71" d="M473.5 103.5H532V230h-58.5z"/><path fill="#6D6E71" d="M562 230.458H443.5v-5.5l3-7.833H559l3 7.75"/><path fill="#808285" d="M443.5 224.958H562v5.5H443.5z"/></g><g><path fill="#17629E" d="M686.58 191.794h15.332v18H686.58z"/><circle fill="none" stroke="#17629E" stroke-width="2" stroke-miterlimit="10" cx="685.902" cy="199.596" r="3.656"/></g><g><path fill="#A7A9AC" d="M665.247 191.794h15.332v18h-15.333z"/><circle fill="none" stroke="#A7A9AC" stroke-width="2" stroke-miterlimit="10" cx="664.569" cy="199.596" r="3.656"/></g><path fill="#939598" d="M555.462 203.75h39.245c1.478-2.41 2.518-5.112 3.023-8h-45.293c.507 2.888 1.547 5.59 3.025 8z"/><path fill="#D7DF23" d="M657.027 209.84h-9.25l-1.32-24.668h11.892"/><path fill="#BCBEC0" d="M555.462 206.75h39.245c1.478-2.41 2.518-5.112 3.023-8h-45.293c.507 2.888 1.547 5.59 3.025 8z"/><path fill="#D1D3D4" d="M555.462 209.75h39.245c1.478-2.41 2.518-5.112 3.023-8h-45.293c.507 2.888 1.547 5.59 3.025 8z"/><path fill="#27AAE1" d="M611.5 200.875c0 3.63 1.746 6.844 4.438 8.875h13.377c2.69-2.03 4.438-5.245 4.438-8.875 0-.728-.075-1.437-.208-2.125H611.71c-.135.688-.21 1.397-.21 2.125z"/><path opacity=".5" fill="#F1F2F2" d="M542.25 178.167H705v31.667H542.25z"/><path fill="#A7A9AC" d="M356.214 281.398c0-3.137-2.123-5.772-5.01-6.565l.944-33.938c0-1.52-1.23-2.75-2.75-2.75s-2.75 1.23-2.75 2.75l.943 33.938c-2.886.792-5.008 3.428-5.008 6.565 0 .042.006.083.007.124h-.008l.01.06c.015.57.1 1.123.247 1.65l1.33 8.877h1.49v-8.362c0-.31.25-.562.562-.562.31 0 .562.252.562.562v8.36h.993v-8.36c0-.31.25-.562.563-.562.31 0 .562.252.562.562v8.36h.992v-8.36c0-.31.252-.562.563-.562.31 0 .562.252.562.562v8.36h.992v-8.36c0-.31.25-.562.562-.562.312 0 .563.252.563.562v8.36h1.488l1.33-8.874c.148-.53.233-1.082.25-1.654l.01-.058h-.007c0-.042.006-.082.006-.124zm-6.827-41.63c.708 0 1.28.575 1.28 1.282s-.572 1.28-1.28 1.28-1.28-.573-1.28-1.28.572-1.28 1.28-1.28z"/><path fill="none" stroke="#000" stroke-linecap="round" stroke-miterlimit="10" d="M349.335 240.5v-11.167"/><path fill="#A7A9AC" d="M379.51 238.144c-1.52 0-2.75 1.23-2.75 2.75l1 36h3.5l1-36c0-1.52-1.23-2.75-2.75-2.75zm-.01 4.188c-.708 0-1.28-.574-1.28-1.28s.572-1.282 1.28-1.282c.708 0 1.28.574 1.28 1.28s-.572 1.282-1.28 1.282z"/><path fill="none" stroke="#000" stroke-linecap="round" stroke-miterlimit="10" d="M379.335 240.5v-11.167"/><ellipse fill="#A7A9AC" cx="379.511" cy="283.25" rx="6.5" ry="8.625"/></svg>