<?xml version="1.0" encoding="utf-8"?><svg xmlns="http://www.w3.org/2000/svg" width="32.952" height="45.075" viewBox="0 0 32.952 45.075"><path fill="#201300" d="M3.048 37.614l-.79-2.716c1.05-1.914.94-4.76.854-5.835L.285 19.35c-.378-1.297-.228-2.666.423-3.85.65-1.186 1.724-2.046 3.022-2.423 1.298-.378 2.667-.23 3.852.423 1.185.65 2.046 1.725 2.424 3.023l.464 1.594c.228-.288.51-.705.837-1.302l.012.004 1.995-3.656 5.572-10.147C20.162.695 23.09-.157 25.413 1.12c2.322 1.274 3.175 4.2 1.9 6.524L20.96 19.208l7.872 4.322v.01l.07.038c3.022 1.66 5.235 5.03 3.356 8.81l-1.16 2.118c-.875 1.59-2.02 2.982-3.405 4.136-.38.318-.805.63-1.294.95-3.038 2.483-7.55 5.31-7.743 5.428l-2.022.057-13.587-7.463z"/><path fill="#FFDAA2" d="M27.858 25.286l.012-.004-8.7-4.777.006-.01c-.012-.006-.024-.004-.037-.01-.493-.272-.676-.89-.404-1.382l1.254-2.28L25.56 6.68c.746-1.358.248-3.063-1.11-3.81-1.357-.745-3.063-.25-3.81 1.108L15.07 14.12l-2.008 3.68v-.024c-2.287 4.164-3.837 2.755-4.03 2.552l-.947-3.25c-.472-1.624-2.172-2.558-3.796-2.084-1.624.472-2.558 2.172-2.085 3.795l2.88 9.9c.13 1.342.278 4.706-1.075 7.17l13.586 7.46s4.646-2.902 7.618-5.347c.415-.27.817-.555 1.2-.873 1.16-.964 2.16-2.16 2.93-3.56l1.123-2.046c1.95-3.92-2.61-6.208-2.61-6.208z"/></svg>