<?xml version="1.0" encoding="utf-8"?>
<!-- Generator: Adobe Illustrator 16.0.0, SVG Export Plug-In . SVG Version: 6.00 Build 0)  -->
<!DOCTYPE svg PUBLIC "-//W3C//DTD SVG 1.1//EN" "http://www.w3.org/Graphics/SVG/1.1/DTD/svg11.dtd">
<svg version="1.1" id="Layer_1" xmlns="http://www.w3.org/2000/svg" xmlns:xlink="http://www.w3.org/1999/xlink" x="0px" y="0px"
	 width="427.75px" height="410.557px" viewBox="0 0 427.75 410.557" enable-background="new 0 0 427.75 410.557"
	 xml:space="preserve">
<circle fill="#FFDE17" cx="277.525" cy="159.298" r="38.864"/>
<circle fill="#FFFFFF" cx="277.525" cy="159.298" r="34.977"/>
<g>
	<path fill="#F7941E" d="M283.77,127.302c2.948,0,4.51,2.258,3.474,5.017l-7.828,20.79c-1.037,2.758-2.737,2.758-3.776,0
		l-7.83-20.79c-1.037-2.76,0.522-5.018,3.475-5.018L283.77,127.302L283.77,127.302z M256.41,134.46
		c1.84-2.303,4.577-2.118,6.09,0.415l11.37,19.082c1.512,2.534,0.449,3.863-2.354,2.954l-21.135-6.84
		c-2.806-0.908-3.597-3.537-1.76-5.842l7.79-9.767L256.41,134.46z M244.95,160.314c-0.654-2.875,1.196-4.898,4.119-4.5l22.011,3.003
		c2.923,0.4,3.3,2.057,0.843,3.685l-18.527,12.256c-2.458,1.627-5.008,0.606-5.664-2.268l-2.779-12.176H244.95z M258.02,185.393
		c-2.656-1.277-3.084-3.99-0.95-6.024l16.072-15.337c2.133-2.034,3.665-1.298,3.404,1.64l-1.97,22.127
		c-0.263,2.938-2.647,4.293-5.307,3.014L258.02,185.393L258.02,185.393z M285.775,190.813c-2.654,1.278-5.043-0.078-5.304-3.015
		l-1.968-22.127c-0.265-2.936,1.27-3.673,3.399-1.64l16.074,15.337c2.134,2.033,1.706,4.746-0.95,6.025l-11.25,5.42H285.775z
		 M307.317,172.49c-0.655,2.875-3.205,3.896-5.664,2.27l-18.523-12.257c-2.46-1.627-2.08-3.285,0.84-3.685l22.01-3.005
		c2.92-0.397,4.774,1.627,4.118,4.5L307.317,172.49L307.317,172.49z M306.424,144.227c1.84,2.305,1.048,4.934-1.758,5.842
		l-21.137,6.84c-2.806,0.91-3.863-0.42-2.354-2.954l11.373-19.082c1.51-2.533,4.247-2.718,6.086-0.414L306.424,144.227
		L306.424,144.227z"/>
</g>
<path fill="#27AAE1" d="M168.64,139.342l18.627,117.603l5.234-0.83l-18.79-118.646c-0.856-5.396-5.926-9.08-11.32-8.224
	l-18.145,2.874l0.72,4.537l16.4-2.598c3.466-0.554,6.726,1.813,7.275,5.282L168.64,139.342z"/>
<path fill="#F1F2F2" d="M273.69,158.754H169.11c-3.901,0-7.063,3.163-7.063,7.066v108.113c0,3.9,3.162,7.064,7.063,7.064h104.58
	c3.903,0,7.066-3.165,7.066-7.064V165.82c0-3.903-3.162-7.066-7.065-7.066H273.69z M273.898,172.061h-0.003v81.491
	c0,3.45-2.798,6.25-6.25,6.25h-92.49c-3.449,0-6.25-2.8-6.25-6.25V172.07v-6.25H273.9v6.24L273.898,172.061z"/>
<path opacity="0.8" fill="#FFDE17" enable-background="new    " d="M265.922,181.836c-17.603-0.502-35.334-4.003-35.334-4.003
	c-0.354,2.65-18.373,1.767-18.373,1.767c-19.435,0.176-43.311,2.237-43.311,2.237v71.714c0,3.45,2.799,6.25,6.25,6.25h92.49
	c3.45,0,6.25-2.8,6.25-6.25v-71.713h-7.973V181.836z"/>
<path opacity="0.8" fill="#E1F4FD" enable-background="new    " d="M273.898,165.82H168.906v16.016c0,0,23.877-2.06,43.311-2.236
	c0,0,18.02,0.883,18.373-1.768c0,0,17.729,3.5,35.333,4.003h7.974v-9.767v-0.008h0.003L273.898,165.82L273.898,165.82z"/>
<path opacity="0.5" fill="#FFFFFF" enable-background="new    " d="M235.33,216.216c-0.5,1.09-1.79,1.572-2.883,1.072L204.45,204.48
	c-1.091-0.5-1.57-1.79-1.07-2.88l12.807-27.997c0.5-1.092,1.79-1.57,2.88-1.072l28,12.81c1.091,0.497,1.57,1.788,1.07,2.878
	L235.33,216.216L235.33,216.216z"/>
<path opacity="0.5" fill="#FFFFFF" enable-background="new    " d="M271.006,215.69c0.297,1.041-0.309,2.129-1.351,2.428
	l-26.752,7.632c-1.043,0.297-2.13-0.31-2.428-1.353l-7.63-26.75c-0.298-1.043,0.307-2.13,1.35-2.426l26.75-7.633
	c1.042-0.3,2.131,0.306,2.431,1.35l7.63,26.75V215.69z M213.08,211.673c0.255,1.17-0.49,2.33-1.664,2.582l-30.099,6.49
	c-1.174,0.25-2.33-0.494-2.583-1.667l-6.489-30.096c-0.252-1.174,0.493-2.33,1.667-2.584l30.098-6.488
	c1.172-0.254,2.33,0.492,2.582,1.666l6.49,30.097H213.08z"/>
<path opacity="0.5" fill="#FFFFFF" enable-background="new    " d="M215.025,194.434c0.178,0.816-0.342,1.623-1.16,1.8
	l-20.956,4.548c-0.816,0.177-1.624-0.342-1.801-1.158l-4.548-20.96c-0.177-0.817,0.342-1.623,1.16-1.8l20.958-4.547
	c0.814-0.178,1.623,0.34,1.8,1.158L215.025,194.434L215.025,194.434z"/>
<path fill="#E7F6FD" d="M169.68,274.874h102.97c-4.306-5.084-25.71-8.95-51.484-8.95C195.39,265.924,173.985,269.79,169.68,274.874z
	"/>
<path fill="#D4EFFC" d="M214,0c-26.326,0-47.67,21.342-47.67,47.667v59.49L214,134.82l47.666-27.667V47.667
	C261.666,21.342,240.324,0,214,0z"/>
<path fill="#C7EAFB" d="M214,134.823l47.666-27.668V47.667C261.666,21.342,240.324,0,214,0"/>
<g>
	<circle fill="#27AAE1" cx="214" cy="141.417" r="1.5"/>
	<circle fill="#27AAE1" cx="214" cy="148.417" r="1.5"/>
	<circle fill="#27AAE1" cx="214" cy="155.417" r="1.5"/>
	<circle fill="#27AAE1" cx="214" cy="162.417" r="1.5"/>
	<circle fill="#27AAE1" cx="214" cy="169.417" r="1.5"/>
	<circle fill="#27AAE1" cx="214" cy="176.417" r="1.5"/>
	<circle fill="#27AAE1" cx="214" cy="183.417" r="1.5"/>
</g>
<g>
	<path fill="#D4EFFC" d="M2.945,153.34c-8.135,25.037,5.567,51.93,30.604,60.063l56.576,18.384l41.042-36.785l-11.583-53.882
		l-56.577-18.383C37.972,114.602,11.079,128.302,2.945,153.34L2.945,153.34z"/>
	<path fill="#C7EAFB" d="M131.167,195.004l-11.584-53.882L63.007,122.74c-25.035-8.136-51.928,5.563-60.063,30.602l0.001-0.002"/>
	<g>
		<circle fill="#27AAE1" cx="137.441" cy="197.04" r="1.5"/>
		<circle fill="#27AAE1" cx="144.098" cy="199.203" r="1.5"/>
		<circle fill="#27AAE1" cx="150.756" cy="201.366" r="1.5"/>
		<circle fill="#27AAE1" cx="157.411" cy="203.529" r="1.5"/>
		<circle fill="#27AAE1" cx="164.071" cy="205.691" r="1.5"/>
		<circle fill="#27AAE1" cx="170.728" cy="207.854" r="1.5"/>
		<circle fill="#27AAE1" cx="177.385" cy="210.021" r="1.5"/>
	</g>
</g>
<g>
	<path fill="#D4EFFC" d="M83.56,401.45c21.3,15.473,51.108,10.75,66.583-10.547l34.967-48.129l-22.303-50.399l-54.824-5.634
		l-34.967,48.128C57.543,356.166,62.262,385.978,83.56,401.45L83.56,401.45z"/>
	<path fill="#C7EAFB" d="M162.807,292.376l-54.824-5.635l-34.967,48.128c-15.473,21.297-10.754,51.108,10.545,66.58l-0.001,0.001"/>
	<g>
		<circle fill="#27AAE1" cx="166.683" cy="287.041" r="1.5"/>
		<circle fill="#27AAE1" cx="170.798" cy="281.377" r="1.5"/>
		<circle fill="#27AAE1" cx="174.911" cy="275.713" r="1.5"/>
		<circle fill="#27AAE1" cx="179.027" cy="270.051" r="1.5"/>
		<circle fill="#27AAE1" cx="183.142" cy="264.39" r="1.5"/>
		<circle fill="#27AAE1" cx="187.256" cy="258.728" r="1.5"/>
		<circle fill="#27AAE1" cx="191.368" cy="253.063" r="1.5"/>
	</g>
</g>
<g>
	<path fill="#D4EFFC" d="M344.438,401.45c21.298-15.477,26.02-45.284,10.545-66.582l-34.966-48.128l-54.826,5.636l-22.3,50.4
		l34.967,48.127C293.328,412.2,323.142,416.925,344.438,401.45z"/>
	<path fill="#C7EAFB" d="M282.106,387.815"/>
	<path fill="#C7EAFB" d="M265.19,292.377l-22.3,50.399l34.967,48.128c15.471,21.297,45.284,26.021,66.58,10.547l0.001-0.001"/>
	<g>
		<circle fill="#27AAE1" cx="261.315" cy="287.041" r="1.5"/>
		<circle fill="#27AAE1" cx="257.199" cy="281.378" r="1.5"/>
		<circle fill="#27AAE1" cx="253.086" cy="275.714" r="1.5"/>
		<circle fill="#27AAE1" cx="248.972" cy="270.052" r="1.5"/>
		<circle fill="#27AAE1" cx="244.857" cy="264.39" r="1.5"/>
		<circle fill="#27AAE1" cx="240.741" cy="258.728" r="1.5"/>
		<circle fill="#27AAE1" cx="236.628" cy="253.063" r="1.5"/>
	</g>
</g>
<g>
	<path fill="#D4EFFC" d="M425.055,153.34c-8.136-25.037-35.027-38.738-60.064-30.604l-56.577,18.383l-11.582,53.883l41.044,36.784
		l56.574-18.383C419.485,205.269,433.19,178.377,425.055,153.34L425.055,153.34z"/>
	<path fill="#C7EAFB" d="M296.831,195.003l41.044,36.784l56.574-18.384c25.035-8.133,38.74-35.025,30.605-60.063l0,0"/>
	<g>
		<circle fill="#27AAE1" cx="290.559" cy="197.041" r="1.5"/>
		<circle fill="#27AAE1" cx="283.902" cy="199.204" r="1.5"/>
		<circle fill="#27AAE1" cx="277.241" cy="201.367" r="1.5"/>
		<circle fill="#27AAE1" cx="270.587" cy="203.531" r="1.501"/>
		<circle fill="#27AAE1" cx="263.929" cy="205.693" r="1.5"/>
		<circle fill="#27AAE1" cx="257.272" cy="207.855" r="1.501"/>
		<circle fill="#27AAE1" cx="250.614" cy="210.021" r="1.5"/>
	</g>
</g>
<path fill="#27AAE1" d="M255.33,66.416h2.21v38.417h-2.21V66.416z"/>
<g>
	<path fill="#27AAE1" d="M332.915,104.75h2.21v38.417h-2.21V104.75z"/>
</g>
<g>
	<path fill="#27AAE1" d="M92.625,104.75h2.21v38.417h-2.21V104.75z"/>
</g>
<g>
	<path fill="#27AAE1" d="M279.5,275.417h2.21v38.416h-2.21V275.417z"/>
</g>
<g>
	<path fill="#27AAE1" d="M146.625,275.417h2.21v38.416h-2.21V275.417z"/>
</g>
</svg>
