<?xml version="1.0" encoding="utf-8"?><svg xmlns:xlink="http://www.w3.org/1999/xlink" id="bartender" image-rendering="auto" baseProfile="basic" version="1.1" x="0px" y="0px" width="210" height="350" xmlns="http://www.w3.org/2000/svg"><g id="Scene_1_l1" overflow="visible"><g id="tanganKanan" transform="matrix(-1 0 0 1 148.4 163.2)"><animateTransform attributeName="transform" additive="replace" type="translate" dur="0.542s" keyTimes="0;0.077;0.154;0.231;0.308;0.384;0.461;0.538;0.615;0.692;0.769;0.846;0.923;0.999;1" values="140.5,168.05;140.488,168.098;140.549,168.074;140.465,168.111;140.483,168.025;140.505,168.064;140.461,168.078;140.49,168.084;140.528,168.03;140.556,168.064;140.527,168.065;140.477,168.059;140.474,168.059;140.5,168.05;140.5,168.05" calcMode="discrete" fill="freeze"/><animateTransform attributeName="transform" additive="sum" type="rotate" dur="0.542s" keyTimes="0;0.077;0.154;0.231;0.308;0.384;0.461;0.538;0.615;0.692;0.769;0.846;0.923;0.999;1" values="0,0,0;-6.795,0,0;-13.784,0,0;-20.778,0,0;-27.588,0,0;-34.589,0,0;-41.592,0,0;-48.408,0,0;-55.411,0,0;-62.412,0,0;-69.222,0,0;-76.215,0,0;-83.205,0,0;-90,0,0;-90,0,0" calcMode="discrete" fill="freeze"/><animateTransform attributeName="transform" additive="sum" type="skewY" dur="0.542s" keyTimes="0;1" values="180;180" calcMode="discrete" fill="freeze"/><animateTransform attributeName="transform" additive="sum" type="scale" dur="0.542s" keyTimes="0;0.077;0.154;0.308;0.384;0.615;0.692;0.846;0.923;1" values="-1,1;-1,1;-0.999,0.999;-0.999,0.999;-0.998,0.998;-0.998,0.998;-0.999,0.999;-0.999,0.999;-1,1;-1,1" calcMode="discrete" fill="freeze"/><animateTransform attributeName="transform" additive="sum" type="translate" dur="0.542s" keyTimes="0;0.077;0.154;0.231;0.308;0.384;0.461;0.538;0.615;0.692;0.769;0.846;0.923;0.999;1" values="-7.9,-4.85;-7.9,-4.9;-7.85,-4.9;-8,-4.9;-7.95,-4.8;-7.9,-4.85;-7.95,-4.9;-7.95,-4.9;-7.85,-4.9;-7.85,-4.9;-7.9,-4.9;-7.9,-4.8;-7.95,-4.8;-7.9,-4.85;-7.9,-4.85" calcMode="discrete" fill="freeze"/><path fill="#A97C50" d="M2.1,4.4L2.1,8.7 2.075,8.7 2.05,29.7Q1.9,30.7 1.45,31.5L14.15,31.5 14.15,4.4 2.1,4.4"/><path fill="#FED09E" d="M0.601,33.251Q0.051,34.501 0.051,36.151L0.051,49.001Q0.051,49.701 0.551,50.251 1.051,50.751 1.751,50.751 2.501,50.751 3.001,50.251 3.501,49.701 3.501,49.001L3.501,40.851Q3.501,40.201 4.151,40.201 4.751,40.201 4.751,40.851L4.751,55.151Q6.401,55.751 7.751,55.751 10.951,55.751 13.201,53.501 15.451,51.251 15.451,48.051L15.451,36.151Q15.451,34.701 14.901,33.351L14.201,31.951 14.201,31.551 1.501,31.551 1.151,32.101 0.601,33.251"/><path fill="#A97C50" d="M12.4,8.7Q14.15,6.9 14.15,4.4 14.15,1.95 12.4,0.2 10.65,-1.6 8.1,-1.6 5.65,-1.6 3.9,0.2 2.1,1.95 2.1,4.4 2.1,6.9 3.9,8.7 5.65,10.45 8.1,10.45 10.65,10.45 12.4,8.7"/></g></g></svg>